<svg id="Layer_1" data-name="Layer 1" xmlns="http://www.w3.org/2000/svg" xmlns:xlink="http://www.w3.org/1999/xlink" viewBox="0 0 2496.42 2176.75"><defs><style>.cls-1{fill:none;}.cls-2{fill:#7dce94;}.cls-3{clip-path:url(#clip-path);}.cls-4{fill:#f64f50;}.cls-5{opacity:0.3;}.cls-6{fill:#000072;}.cls-7{fill:#f4c095;}.cls-8{fill:#78788e;}.cls-9{fill:#ffc9a1;}.cls-10{opacity:0.7;}.cls-11{fill:#fff;}.cls-12{fill:#f73954;}.cls-13{fill:#ff1273;}.cls-14{fill:#d38a4f;}</style><clipPath id="clip-path"><path class="cls-1" d="M2267.22,1053.55c0,554.37-500.9,989.11-994.4,989.11S303.16,1593.25,303.16,1038.88c0-394,278.14-734.92,572.17-899.25C995.05,72.72,1130,35.09,1272.82,35.09c179.61,0,346.84,59.53,486.91,162C2004.53,376.12,2267.22,700.94,2267.22,1053.55Z"/></clipPath></defs><title>usuario</title><circle class="cls-2" cx="1285.19" cy="1088.37" r="1075.94"/><g class="cls-3"><path class="cls-4" d="M1754.23,2281.36s-187,71.4-468.59,71.4-468.52-71.4-468.52-71.4c-62.09-245.58-10.35-463-1.32-497.48.21-.69.35-1.32.49-1.87s.34-1.19.48-1.81a1,1,0,0,0,.14-.42c.07-.21.14-.48.21-.69,0,0,42.37-176.41,468.52-176.41s468.59,176.41,468.59,176.41S1821.94,2013.49,1754.23,2281.36Z"/><g class="cls-5"><path class="cls-6" d="M1755.48,1783.88c-.14-.62-.35-1.25-.49-1.87a15.65,15.65,0,0,1-.48-1.81,1,1,0,0,1-.14-.42c-.07-.21-.14-.48-.21-.69,0,0-20,430.81-468.52,430.81s-468.52-430.81-468.52-430.81c-.07.21-.14.48-.21.69a1,1,0,0,1-.14.42c-.14.62-.28,1.18-.48,1.81s-.35,1.25-.49,1.87c-9,34.52-60.77,251.9,1.32,497.48,0,0,187,71.4,468.52,71.4s468.52-71.4,468.52-71.4C1816.25,2035.78,1764.51,1818.4,1755.48,1783.88Z"/></g><path class="cls-7" d="M1285.67,1769.88h172.42s-15.62,120.06-172.42,120.06-172.41-120.06-172.41-120.06Z"/><path class="cls-6" d="M1285.67,1914.25c-176.11,0-196.33-139.82-196.52-141.24a24.31,24.31,0,0,1,24.11-27.44h344.83a24.31,24.31,0,0,1,24.1,27.44C1482,1774.43,1461.78,1914.25,1285.67,1914.25Zm-139-120.06c14.55,29.3,50.81,71.44,139,71.44s124.4-42.09,139-71.44Z"/><path class="cls-6" d="M823.08,1780.8c-5.72,41.41-9.65,83.25-12.23,124.81s-3.78,83.17-2.77,124.63l.11,15.55.72,15.52c.55,10.35.81,20.71,1.59,31,1.93,20.62,3.24,41.28,6.41,61.71,4.87,41.08,13.93,81.38,23.22,121.49l-14.56-16.38c17.08,6.12,36.22,11.82,54.73,16.95,18.73,5.09,37.59,9.91,56.63,14.06q57,12.89,115.05,21.44a1669.27,1669.27,0,0,0,233.66,16.88,1658.05,1658.05,0,0,0,233.62-17.2q57.95-8.61,115-21.64c19-4.23,37.86-9,56.56-14.2,18.49-5.17,37.61-10.91,54.63-17.06l0,0-15.08,17,6.71-30.13c2.34-10,4.77-20,6.34-30.22l5.43-30.44c1.92-10.13,3-20.41,4.51-30.61,5.84-40.88,8.63-82.24,9.83-123.68.12-10.36.65-20.74.51-31.12l-.28-31.16c-.78-20.76-1.69-41.55-3.16-62.33-2.87-41.51-6.89-83.31-12.41-124.72l-.05-.34a6.67,6.67,0,0,1,12.81-3.34c16,40.34,25.9,82.14,32.8,124.56a970.22,970.22,0,0,1,11.67,128.38l.51,16.16-.11,16.16c-.14,10.78,0,21.58-.49,32.35-1.33,21.54-2.07,43.15-4.7,64.62-3.64,43.13-12.32,85.73-22.2,127.92a23.79,23.79,0,0,1-14.73,16.83l-.35.13-.07,0c-20.27,7.4-39.17,13.05-58.86,18.66-9.76,2.7-19.52,5.42-29.34,7.82q-14.68,3.83-29.46,7.11-59.08,13.36-118.92,22a1727.48,1727.48,0,0,1-240.75,17.1,1717.8,1717.8,0,0,1-240.7-17.44q-59.78-8.8-118.84-22.23c-19.69-4.46-39.24-9.61-58.74-15.08-19.65-5.65-38.54-11.35-58.75-18.79l-.16-.05a23.13,23.13,0,0,1-14.4-16.33c-9.79-42.19-18-84.79-22-127.83-2.73-21.45-3.56-43-5-64.54-.53-10.77-.52-21.55-.81-32.32l-.31-16.15.3-16.16c.29-21.53,1.82-43,3.39-64.45,2.44-21.38,4.6-42.75,8.45-63.91,7.19-42.37,17.14-84.13,33-124.47a6.25,6.25,0,0,1,12,3.13Z"/><path class="cls-8" d="M631.38,697.86s-119.43,146-241,240.59c-48.42,37.68-58.1,107.62-19.61,155.4,40.28,50,120.71,105.14,280,140.35C650.72,1234.2,718.44,1047.6,631.38,697.86Z"/><g class="cls-5"><path class="cls-6" d="M668.82,905.71c.15,133.79-25,203.48-25,203.48-159.29-35.22-239.72-90.34-280-140.35-.08-.1-.14-.21-.22-.3-23.44,38.27-22.58,88.38,7.17,125.31,40.28,50,120.71,105.14,280,140.35C650.72,1234.2,691.77,1121,668.82,905.71Z"/></g><path class="cls-6" d="M650.74,1258.51a24.27,24.27,0,0,1-5.26-.57c-140.31-31-239.12-81.1-293.69-148.84a131,131,0,0,1-28.19-98,135.31,135.31,0,0,1,51.8-91.78c118-91.8,236-235.37,237.17-236.81A24.31,24.31,0,0,1,655,692c87.84,352.87,21.47,542.6,18.6,550.5A24.3,24.3,0,0,1,650.74,1258.51ZM618.66,750.22c-43.87,50-127.47,140.56-213.4,207.41a87.11,87.11,0,0,0-33.37,59,82.74,82.74,0,0,0,17.76,61.94c44,54.64,128.09,98.23,244,126.66C646.45,1151.83,672.4,996,618.66,750.22Z"/><path class="cls-9" d="M653.7,1066.94S493,979.88,439.39,1142.84s118.32,303.61,234.4,279.05Z"/><g class="cls-5"><path class="cls-6" d="M434.78,1159.23c-37.39,155.86,126.84,286.39,239,262.66l-5.06-89.45C579.72,1347.46,461.21,1269.14,434.78,1159.23Z"/></g><g class="cls-10"><path class="cls-11" d="M439.39,1191.46c53.58-163,214.31-75.9,214.31-75.9l17.37,306.78c.9-.17,1.83-.26,2.72-.45l-20.09-355S493,979.88,439.39,1142.84A194.18,194.18,0,0,0,431,1229.2,201.12,201.12,0,0,1,439.39,1191.46Z"/></g><path class="cls-6" d="M646.36,1449c-61,0-129.13-32.53-178.08-87.14-58.81-65.6-77.75-148.19-52-226.58,17.57-53.45,47.69-89,89.51-105.61,74.14-29.48,156,14.06,159.47,15.93a24.31,24.31,0,0,1,12.69,20l20.09,355a24.3,24.3,0,0,1-19.24,25.15A156.57,156.57,0,0,1,646.36,1449ZM562,1068a103,103,0,0,0-38.42,6.9c-27.7,11.09-48.25,36.5-61.08,75.54-20.2,61.42-4.89,126.64,42,179,39.95,44.56,96.35,71.91,143.75,71l-18-317.47C615.71,1076.86,589.6,1068,562,1068Z"/><path class="cls-9" d="M1917.72,1066.94s160.73-87.06,214.3,75.9-118.31,303.61-234.39,279.05Z"/><g class="cls-5"><path class="cls-6" d="M2136.64,1159.23c37.39,155.86-126.84,286.39-239,262.66l5.06-89.45C1991.7,1347.46,2110.21,1269.14,2136.64,1159.23Z"/></g><g class="cls-10"><path class="cls-11" d="M2132,1191.46c-53.57-163-214.3-75.9-214.3-75.9l-17.37,306.78c-.9-.17-1.83-.26-2.72-.45l20.09-355s160.73-87.06,214.3,75.9a193.89,193.89,0,0,1,8.42,86.36A200.34,200.34,0,0,0,2132,1191.46Z"/></g><path class="cls-6" d="M1925.06,1449a156.74,156.74,0,0,1-32.47-3.3,24.32,24.32,0,0,1-19.24-25.15l20.1-355a24.29,24.29,0,0,1,12.69-20c3.45-1.87,85.31-45.41,159.47-15.93,41.82,16.63,71.93,52.16,89.5,105.61,25.78,78.39,6.83,161-52,226.58C2054.19,1416.44,1986.09,1449,1925.06,1449Zm-1.87-48.61c47.41,1,103.8-26.4,143.75-71,46.88-52.31,62.19-117.53,42-179-12.83-39-33.38-64.45-61.08-75.54-39.32-15.75-85.38-.83-106.69,8Z"/><path class="cls-9" d="M1285.71,892.82c461.85,0,683.35,91.53,683.35,91.53s-17.86,205.37,0,339.32-56.3,455.4-683.35,455.4-701.21-321.46-683.35-455.4,0-339.32,0-339.32S823.86,892.82,1285.71,892.82Z"/><ellipse class="cls-6" cx="1013.67" cy="1266.62" rx="98.78" ry="125.01"/><ellipse class="cls-11" cx="1038.23" cy="1246.52" rx="36.46" ry="46.14"/><path class="cls-6" d="M1038.23,1295.26c-21.54,0-39.06-21.86-39.06-48.73s17.52-48.75,39.06-48.75,39.06,21.87,39.06,48.75S1059.76,1295.26,1038.23,1295.26Zm0-92.27c-18.67,0-33.85,19.53-33.85,43.54s15.18,43.52,33.85,43.52,33.85-19.52,33.85-43.52S1056.89,1203,1038.23,1203Z"/><ellipse class="cls-6" cx="1557.75" cy="1266.62" rx="98.78" ry="125.01"/><ellipse class="cls-11" cx="1533.19" cy="1246.52" rx="36.46" ry="46.14"/><path class="cls-6" d="M1533.19,1295.26c-21.54,0-39.06-21.86-39.06-48.73s17.52-48.75,39.06-48.75,39.06,21.87,39.06,48.75S1554.73,1295.26,1533.19,1295.26Zm0-92.27c-18.66,0-33.85,19.53-33.85,43.54s15.19,43.52,33.85,43.52,33.85-19.52,33.85-43.52S1551.86,1203,1533.19,1203Z"/><path class="cls-6" d="M936,1096.6c9.65-9.47,20.86-16.5,33-22.3a129.7,129.7,0,0,1,39.38-11.35c13.92-2.09,28.66-.5,42.63,3.52l10.3,3.73c3.28,1.6,6.43,3.48,9.61,5.23,1.59.89,3.16,1.8,4.66,2.81l4.24,3.38c2.76,2.33,5.49,4.66,8,7.14a13.89,13.89,0,0,1-15.17,22.71l-2-.86c-10.24-4.41-19.17-9.62-29.42-12.08a133.87,133.87,0,0,0-31.51-5.33,195.08,195.08,0,0,0-34.26,2,328.6,328.6,0,0,0-35.7,7.53l-.28.07a3.71,3.71,0,0,1-3.55-6.24Z"/><path class="cls-6" d="M1631.54,1102.77a327.94,327.94,0,0,0-35.69-7.53,195.2,195.2,0,0,0-34.27-2,134,134,0,0,0-31.51,5.33c-10.24,2.46-19.17,7.67-29.41,12.08l-2,.84a13.88,13.88,0,0,1-15.19-22.69c2.54-2.48,5.28-4.81,8-7.14l4.24-3.38c1.5-1,3.07-1.92,4.65-2.81,3.19-1.75,6.34-3.63,9.62-5.23l10.3-3.73c14-4,28.7-5.61,42.63-3.52a129.78,129.78,0,0,1,39.38,11.35c12.16,5.8,23.37,12.83,33,22.3a3.71,3.71,0,0,1-3.54,6.24Z"/><path class="cls-6" d="M1415.86,1585.74h-.07c-10.49,14.23-25.07,27.71-45.14,39a174.06,174.06,0,0,1-169.88,0c-20.07-11.25-34.66-24.73-45.21-39-23.69-32-27-68.21-25.49-93.35a25.15,25.15,0,0,1,31.74-22.85c56,15.42,123.9,17.09,123.9,17.09s67.92-1.67,123.9-17.09a25.15,25.15,0,0,1,31.74,22.85C1442.88,1517.53,1439.54,1553.72,1415.86,1585.74Z"/><path class="cls-12" d="M1415.79,1585.74c-10.49,14.23-25.07,27.71-45.14,39a174.06,174.06,0,0,1-169.88,0c-20.07-11.25-34.66-24.73-45.21-39C1155.56,1585.74,1267.17,1491.56,1415.79,1585.74Z"/><path class="cls-6" d="M1285.71,1664.14a190.69,190.69,0,0,1-93.47-24.33c-74.47-41.89-81.77-111-79.5-148.47a42.51,42.51,0,0,1,53.7-38.54c51,14.1,113.52,16.29,119.27,16.46,5.72-.18,68.32-2.39,119.26-16.46a42.51,42.51,0,0,1,53.71,38.54c2.27,37.46-5,106.58-79.51,148.47A190.63,190.63,0,0,1,1285.71,1664.14ZM1155.11,1486a7.64,7.64,0,0,0-4.41,1.43,7.86,7.86,0,0,0-3.3,6c-2.18,35.87,6.79,85.12,61.87,116.11a156.83,156.83,0,0,0,152.88,0h0c55.08-31,64-80.24,61.86-116.11a7.86,7.86,0,0,0-3.29-6,7.54,7.54,0,0,0-6.51-1.14c-57.36,15.84-125.22,17.64-128.08,17.71h-.84c-2.86-.07-70.73-1.87-128.09-17.71A7.61,7.61,0,0,0,1155.11,1486Z"/><path class="cls-6" d="M1285.71,1803.38c-291.9,0-499.17-67.68-616-201.16-103.87-118.63-96.24-245.66-91.42-281.77,17.3-129.69,0-332-.12-334a24.31,24.31,0,0,1,14.93-24.57c9.23-3.81,231.27-93.37,692.64-93.37s683.41,89.56,692.63,93.37a24.31,24.31,0,0,1,14.94,24.57c-.18,2-17.42,204.31-.12,334,4.81,36.11,12.45,163.14-91.42,281.77C1784.87,1735.7,1577.61,1803.38,1285.71,1803.38ZM628,1000.88c4,54.15,13.46,213.14-1.59,326-4.13,31-10.58,140.08,79.81,243.32,105.71,120.74,306.08,184.56,579.45,184.56s473.73-63.82,579.45-184.56c90.39-103.24,83.94-212.35,79.81-243.32-15-112.86-5.55-271.85-1.59-326-58.82-20-276.11-83.75-657.67-83.75S686.89,980.85,628,1000.88Z"/><circle class="cls-13" cx="1285.71" cy="178.46" r="119.06"/><g class="cls-10"><path class="cls-11" d="M1180.54,213.19a119,119,0,0,1,221.26-60.84,119,119,0,1,0-218.3,87A119.47,119.47,0,0,1,1180.54,213.19Z"/></g><path class="cls-4" d="M1285.71,321.83c-79.06,0-143.37-64.32-143.37-143.37s64.31-143.37,143.37-143.37,143.37,64.32,143.37,143.37S1364.76,321.83,1285.71,321.83Zm0-238.12a94.75,94.75,0,1,0,94.75,94.75A94.85,94.85,0,0,0,1285.71,83.71Z"/><path class="cls-4" d="M1285.71,178.46c738.9,0,729.75,601.62,704.1,811.4-4.53,37-41,61.08-76.93,51.06-120.67-33.69-259.15-55.72-375.23-69.78a2096.24,2096.24,0,0,0-503.88,0c-116.08,14.06-254.56,36.09-375.24,69.78-35.91,10-72.4-14-76.92-51.06C556,780.08,546.81,178.46,1285.71,178.46Z"/><g class="cls-5"><path class="cls-6" d="M1852.7,394.55c105,172,96.69,384.72,83.79,490.21-4.18,34.21-37.9,56.46-71.1,47.19-111.54-31.14-239.53-51.5-346.82-64.49a1937,1937,0,0,0-465.72,0C945.56,880.45,817.57,900.81,706,932c-33.2,9.27-66.92-13-71.1-47.19C622,779.27,613.68,566.57,718.72,394.55,556.47,588.6,566,862,581.61,989.86c4.52,37,41,61.08,76.92,51.06,120.68-33.69,259.16-55.72,375.24-69.78a2096.24,2096.24,0,0,1,503.88,0c116.08,14.06,254.56,36.09,375.23,69.78,35.92,10,72.4-14,76.93-51.06C2005.44,862,2014.94,588.6,1852.7,394.55Z"/></g><path class="cls-6" d="M642,1067.49a85.09,85.09,0,0,1-84.53-74.68C539.3,844.13,535,565.16,710.14,367.25c125.16-141.4,318.81-213.1,575.57-213.1s450.41,71.7,575.57,213.1c175.18,197.91,170.83,476.88,152.65,625.56a85.15,85.15,0,0,1-107.58,71.52c-101-28.2-226-51.43-371.62-69a2074.53,2074.53,0,0,0-498,0c-145.59,17.62-270.63,40.85-371.62,69A85.71,85.71,0,0,1,642,1067.49Zm643.7-864.72c-242.23,0-423.63,66.18-539.17,196.7C577.92,590,591.9,873.75,605.74,986.91a35.73,35.73,0,0,0,15.88,25.78A36.78,36.78,0,0,0,652,1017.5c103.36-28.85,230.83-52.57,378.86-70.49a2123.08,2123.08,0,0,1,509.72,0c148,17.92,275.49,41.64,378.85,70.49a36.88,36.88,0,0,0,30.38-4.81,35.73,35.73,0,0,0,15.88-25.78c13.84-113.16,27.82-396.93-140.81-587.44C1709.34,269,1527.94,202.77,1285.71,202.77Z"/><path class="cls-14" d="M1662.76,1091.52s-33-265.65-377-256.76c0,0-161,2.22-272.6,14.51,0,0-34.31-115.5,99.32-202.8v-.07c40.49-26.39,96.4-50.28,173.28-67.57,0,0,159.74-26.81,234.12-120.57,0,0,1.25,1.88,3.12,5.42,8.55,16.18,30,67.78,8.06,144.53,0,0,140.64,50.21,183.08,204.25S1662.76,1091.52,1662.76,1091.52Z"/><g class="cls-5"><path class="cls-6" d="M1519.86,458.25s-9.32,178.22-165.28,205.47c-7.27,1.27-7.91,11.49-.92,13.85,49.8,16.77,157.92,40.14,240.86-34.09L1531,608.19S1552.6,544.57,1519.86,458.25Z"/></g><g class="cls-10"><path class="cls-11" d="M1523,463.68c-12.22,80-97.12,126.52-261.3,164.23-207.87,47.78-248.54,221.36-248.54,221.36s-34.31-115.5,99.32-202.8v-.07c40.49-26.39,96.4-50.28,173.28-67.57,0,0,159.74-26.81,234.12-120.57C1519.83,458.26,1521.08,460.14,1523,463.68Z"/></g><path class="cls-6" d="M1553.7,616.93c-.66,1.59-1,2.31-1.48,3.2s-.87,1.71-1.31,2.46c-.89,1.55-1.79,3.07-2.73,4.45a94,94,0,0,1-5.83,8.14,123.07,123.07,0,0,1-13.56,14c-10,8.19-20.81,15.18-32.64,19.35-2.86,1.2-5.92,1.91-8.84,2.85a58.4,58.4,0,0,1-8.88,2.18c-3,.54-5.92,1.19-8.88,1.58l-8.91.54a53.4,53.4,0,0,1-8.76.05c-2.91-.14-5.78-.25-8.64-.48-5.69-.69-11.28-1.78-16.74-2.85a5.66,5.66,0,0,1-.41-11l.72-.2c5.12-1.4,10.15-2.31,15-3.75,4.76-1.86,9.62-2.74,14-5a102.11,102.11,0,0,0,24.09-14.07,89.77,89.77,0,0,0,17.7-19,82.82,82.82,0,0,0,6.56-10.53c.82-1.85,1.88-3.56,2.58-5.32.43-.89.75-1.73,1-2.54a11.55,11.55,0,0,0,.43-1.11c.12-.31.29-.78.12-.43a24.31,24.31,0,0,1,45.36,17.48Z"/><path class="cls-6" d="M1662.73,1115.81a24.32,24.32,0,0,1-24.12-21.32c-1.29-9.87-35.27-243.49-352.27-235.41h-.3c-1.59,0-161.12,2.36-270.27,14.37a24.29,24.29,0,0,1-26-17.24c-.83-2.8-19.94-69.57,23.19-143.13,43.86-74.8,133.82-128,267.37-158,.44-.09.88-.18,1.32-.25,1.49-.26,151.53-26.51,219.13-111.69a24.64,24.64,0,0,1,20-9.18A24.31,24.31,0,0,1,1540,444.65c1.69,2.49,38.36,58.25,19.51,149.47,43.14,21,142.26,82.08,178,211.88,45.06,163.65-51.21,294.59-55.33,300.08A24.31,24.31,0,0,1,1662.73,1115.81ZM1302.28,810.25c176.73,0,271.42,72.55,320.07,134.53a332.92,332.92,0,0,1,47.87,83.89c21.36-47.11,44-124.06,20.42-209.76-38.61-140.23-166.51-187.37-167.8-187.83a24.29,24.29,0,0,1-15.19-29.56c12.36-43.27,9.48-76.95,4-99.17-82.19,74.61-209.08,98.19-221.18,100.3-117.18,26.45-198.39,72.77-234.87,134-20.58,34.52-23.1,66.55-22,86.16,108.08-10.14,243.7-12.18,251.62-12.3Q1293.88,810.25,1302.28,810.25Zm-16.57,24.53h0Z"/></g></svg>