<svg id="Camada_1" data-name="Camada 1" xmlns="http://www.w3.org/2000/svg" viewBox="0 0 1920 1080"><defs><style>.cls-1,.cls-4,.cls-5,.cls-6,.cls-7,.cls-8{fill:none;stroke-miterlimit:10;stroke-width:2px;}.cls-1{stroke:#f64f50;}.cls-2{fill:#6d3ea2;}.cls-3{fill:#643895;}.cls-4{stroke:#7dce94;}.cls-5{stroke:#ffe197;}.cls-6{stroke:#ffa9d0;}.cls-7{stroke:#fbb03b;}.cls-8{stroke:#00b0ff;}</style></defs><title>bg1</title><circle class="cls-1" cx="1258.5" cy="899.5" r="52.5"/><rect class="cls-2" width="1920" height="1080"/><path class="cls-3" d="M1851.74,817.93c7,20.68-7.8,63,0,88.17,8,25.17,38.62,33.36,47.21,46.43,8.58,13.26-4.88,31.41-20.29,43.69-15.21,12.49-32.38,19.12-48,22.63s-30,3.9-44.28,3.71c-14.24,0-28.48-.39-54,1.75s-62.23,6.83-81.73-5.46-21.85-41.74-12.1-65.54c10-23.6,32.19-41.55,50.72-55.59s33.55-24.19,49.16-40.19c15.6-15.8,31.79-37.45,54.42-48.57C1815.46,797.65,1844.52,797.06,1851.74,817.93Z"/><circle class="cls-1" cx="178.5" cy="102.5" r="52.5"/><circle class="cls-4" cx="1784.5" cy="102.5" r="52.5"/><circle class="cls-1" cx="1889.5" cy="925.5" r="52.5"/><circle class="cls-5" cx="153.5" cy="728.5" r="52.5"/><circle class="cls-6" cx="588.5" cy="1011.5" r="52.5"/><circle class="cls-7" cx="1188.5" cy="5.5" r="52.5"/><circle class="cls-4" cx="572.5" cy="207.5" r="52.5"/><circle class="cls-8" cx="1606.5" cy="539.5" r="52.5"/><path class="cls-3" d="M225,988.06c-5.64,31.5-22.66,60.14-46.29,71.25s-53.55,4.44-77.41-4.66S60,1033.87,38.74,1016.9s-46.18-39.22-49.62-65.8S3.76,894.16,29,881.29s57.47-8.18,90.36-4.33c32.85,4,66.14,7.23,85.69,26.06C224.8,921.87,230.62,956.36,225,988.06Z"/><path class="cls-3" d="M180-38.51c23.85,29.58,31.25,69.71,24.22,103-7,33.1-28.66,59.36-52.51,82.47-23.86,23.3-50.11,43.45-74.52,42-24.6-1.66-47.52-25.14-66-48.26-18.67-23.3-32.72-46.22-42.71-79.14-10-33.1-16.09-76.18,2.4-105.77S32.43-89.92,74-88.62C115.82-87.15,156-68.28,180-38.51Z"/><path class="cls-3" d="M1766.24,103.33c13,16.9,17.5,39.59,27.13,58.42s24.62,33.81,28.47,51.16-3.41,36.77-17.64,47.89-35,13.94-51.9,20.32-29.66,16.61-43.6,18.53-29.06-4.45-43.29-12.3c-14.39-8-27.88-17.65-34-30.7-6.23-13-5-29.51-11-49.38s-18.84-43.3-12.16-55.16c6.82-12,33.36-12.6,53.67-25.5s34-38.11,51.76-44.93S1753.19,86.27,1766.24,103.33Z"/><path class="cls-3" d="M338.24,532.33c13.05,16.9,17.5,39.59,27.13,58.42s24.62,33.81,28.47,51.16-3.41,36.77-17.64,47.89-35,13.94-51.9,20.32-29.66,16.61-43.6,18.53-29.06-4.45-43.29-12.3c-14.39-8-27.88-17.65-34-30.7s-5-29.51-11-49.38-18.84-43.3-12.16-55.16,33.36-12.6,53.67-25.5,34-38.11,51.76-44.93S325.19,515.27,338.24,532.33Z"/><path class="cls-3" d="M1344.3,157.14c-2.72,21.18-15.62,40.36-22.12,60.5s-6.5,41.31-16,56.3-28.42,23.59-46.35,21.39-34.6-14.89-51.06-22.33-32.72-9.23-43.93-17.72-17.41-23.7-21.92-39.32c-4.51-15.83-7.23-32.19-2.31-45.72s17.31-24.43,27.16-42.67S1185,83.63,1198.14,80c13.31-3.67,32.5,14.68,56,19.93s51-2.94,68.36,4.82S1347.13,135.85,1344.3,157.14Z"/><path class="cls-3" d="M1169.74,802.93c7,20.68-7.8,63,0,88.17,8,25.17,38.62,33.36,47.21,46.43,8.58,13.26-4.88,31.41-20.29,43.69-15.21,12.49-32.38,19.12-48,22.63s-30,3.9-44.28,3.71c-14.24,0-28.48-.39-54,1.75s-62.23,6.83-81.73-5.46-21.85-41.74-12.1-65.54c10-23.6,32.19-41.55,50.72-55.59s33.55-24.19,49.16-40.19c15.6-15.8,31.79-37.45,54.42-48.57C1133.46,782.65,1162.52,782.06,1169.74,802.93Z"/></svg>