<svg id="Camada_1" data-name="Camada 1" xmlns="http://www.w3.org/2000/svg" viewBox="0 0 1920 1080"><defs><style>.cls-1,.cls-4,.cls-5,.cls-6,.cls-7,.cls-8{fill:none;stroke-miterlimit:10;stroke-width:2px;}.cls-1{stroke:#f64f50;}.cls-2{fill:#6d3ea2;}.cls-3{fill:#643895;}.cls-4{stroke:#7dce94;}.cls-5{stroke:#ffe197;}.cls-6{stroke:#ffa9d0;}.cls-7{stroke:#fbb03b;}.cls-8{stroke:#00b0ff;}</style></defs><title>Sem título-2</title><circle class="cls-1" cx="1258.5" cy="186.8" r="52.5"/><rect class="cls-2" x="-41" y="-9" width="1983" height="1095.3"/><path class="cls-3" d="M1792.83,277.34c-22.63-11.12-38.82-32.77-54.42-48.57-15.61-16-30.63-26.14-49.16-40.18s-40.77-32-50.72-55.6c-9.75-23.79-7.41-53.25,12.1-65.54s56.18-7.61,81.73-5.46,39.79,1.75,54,1.75c14.24-.19,28.68.2,44.28,3.71s32.78,10.14,48,22.63c15.41,12.29,28.87,30.43,20.29,43.69-8.59,13.07-39.21,21.27-47.21,46.43-7.8,25.16,7,67.49,0,88.17C1844.52,289.24,1815.46,288.66,1792.83,277.34Z"/><circle class="cls-4" cx="1784.5" cy="983.8" r="52.5"/><circle class="cls-1" cx="1889.5" cy="160.8" r="52.5"/><circle class="cls-5" cx="153.5" cy="357.8" r="52.5"/><circle class="cls-6" cx="581.5" cy="43.8" r="52.5"/><circle class="cls-7" cx="1471.5" cy="997.5" r="52.5"/><circle class="cls-4" cx="572.5" cy="878.8" r="52.5"/><circle class="cls-8" cx="1606.5" cy="546.8" r="52.5"/><path class="cls-3" d="M156,183.28c-19.55,18.83-52.84,22-85.69,26.06C37.46,213.19,5.12,218-20,205s-43.22-43.37-39.87-69.82,28.37-48.82,49.62-65.79S28.5,40.85,52.25,31.66,106.13,16,129.66,27,170.31,66.74,176,98.24C181.62,130,175.8,164.43,156,183.28Z"/><path class="cls-3" d="M209,1017.93c-41.6,1.29-84.68-14.8-103.18-44.38s-12.38-72.67-2.4-105.77c10-32.91,24-55.84,42.71-79.14,18.5-23.11,41.42-46.6,66-48.26,24.41-1.48,50.66,18.68,74.52,42,23.85,23.12,45.48,49.37,52.51,82.47,7,33.29-.37,73.41-24.22,103C291,997.59,250.82,1016.45,209,1017.93Z"/><path class="cls-3" d="M1713.75,1004.63c-17.8-6.82-31.59-32-51.76-44.93s-46.85-13.5-53.67-25.51,6.22-35.29,12.16-55.16,4.74-36.33,11-49.38c6.08-13,19.57-22.69,34-30.69,14.23-7.86,29.21-14.24,43.29-12.31s26.69,12,43.6,18.54c16.9,6.37,37.81,9.19,51.9,20.31s21.5,30.55,17.64,47.9-18.83,32.32-28.47,51.15-14.08,41.52-27.13,58.43S1731.54,1011.45,1713.75,1004.63Z"/><path class="cls-3" d="M229.75,646.63c-17.8-6.82-31.59-32-51.76-44.93s-46.85-13.5-53.67-25.51,6.22-35.29,12.16-55.16,4.74-36.33,11-49.38S167,449,181.41,441c14.23-7.86,29.21-14.24,43.29-12.31s26.69,12,43.6,18.54c16.9,6.37,37.81,9.19,51.9,20.31s21.5,30.55,17.64,47.9S319,547.72,309.37,566.55,295.29,608.07,282.24,625,247.54,653.45,229.75,646.63Z"/><path class="cls-3" d="M1322.49,981.59c-17.4,7.76-45-.31-68.36,4.83s-42.68,23.59-56,19.92c-13.11-3.67-20.55-29.36-30.41-47.6s-22.33-29-27.16-42.68-2.2-29.88,2.31-45.72c4.51-15.62,10.59-30.72,21.92-39.31s27.36-10.38,43.93-17.72S1242,793.07,1259.79,791s36.8,6.4,46.35,21.39,9.54,36.18,16,56.31,19.4,39.32,22.12,60.5S1339.9,973.83,1322.49,981.59Z"/><path class="cls-3" d="M1110.83,292.34c-22.63-11.12-38.82-32.77-54.42-48.57-15.61-16-30.63-26.14-49.16-40.18s-40.77-32-50.72-55.6c-9.75-23.79-7.41-53.25,12.1-65.54s56.18-7.61,81.73-5.46,39.79,1.75,54,1.75c14.24-.19,28.68.2,44.28,3.71s32.78,10.14,48,22.63c15.41,12.29,28.87,30.43,20.29,43.69-8.59,13.07-39.21,21.27-47.21,46.43-7.8,25.16,7,67.49,0,88.17C1162.52,304.24,1133.46,303.66,1110.83,292.34Z"/><circle class="cls-1" cx="178.5" cy="983.8" r="52.5"/></svg>