<svg id="Camada_1" data-name="Camada 1" xmlns="http://www.w3.org/2000/svg" viewBox="0 0 1920 1080"><defs><style>.cls-1,.cls-4,.cls-5,.cls-6,.cls-7,.cls-8{fill:none;stroke-miterlimit:10;stroke-width:2px;}.cls-1{stroke:#f64f50;}.cls-2{fill:#6d3ea2;}.cls-3{fill:#643895;}.cls-4{stroke:#7dce94;}.cls-5{stroke:#ffe197;}.cls-6{stroke:#ffa9d0;}.cls-7{stroke:#fbb03b;}.cls-8{stroke:#00b0ff;}</style></defs><title>Sem título-2</title><circle class="cls-1" cx="658.5" cy="189.5" r="52.5"/><rect class="cls-2" x="-3" y="-54" width="1945" height="1143" transform="translate(1939 1035) rotate(180)"/><path class="cls-3" d="M65.26,271.07c-7-20.68,7.8-63,0-88.17-8-25.17-38.62-33.36-47.21-46.43-8.58-13.26,4.88-31.41,20.29-43.69,15.21-12.49,32.38-19.12,48-22.63s30-3.9,44.28-3.71c14.24,0,28.48.39,54-1.75s62.23-6.83,81.73,5.46,21.85,41.74,12.1,65.54c-10,23.6-32.19,41.55-50.72,55.59s-33.55,24.19-49.16,40.19C163,247.27,146.8,268.92,124.17,280,101.54,291.35,72.48,291.94,65.26,271.07Z"/><circle class="cls-1" cx="1710.5" cy="986.5" r="52.5"/><circle class="cls-4" cx="132.5" cy="986.5" r="52.5"/><circle class="cls-1" cx="27.5" cy="163.5" r="52.5"/><circle class="cls-5" cx="1763.5" cy="360.5" r="52.5"/><circle class="cls-6" cx="1335.5" cy="46.5" r="52.5"/><circle class="cls-7" cx="867.5" cy="1009.5" r="52.5"/><circle class="cls-4" cx="1344.5" cy="881.5" r="52.5"/><circle class="cls-8" cx="310.5" cy="549.5" r="52.5"/><path class="cls-3" d="M1692.05,100.94c5.64-31.5,22.66-60.14,46.29-71.25s53.55-4.44,77.41,4.66S1857,55.13,1878.26,72.1s46.18,39.22,49.62,65.8-14.64,56.94-39.87,69.81-57.47,8.18-90.36,4.33c-32.85-4-66.14-7.23-85.69-26.06C1692.2,167.13,1686.38,132.64,1692.05,100.94Z"/><path class="cls-3" d="M1670,970.51c-23.85-29.58-31.25-69.71-24.22-103,7-33.1,28.66-59.36,52.51-82.47,23.86-23.3,50.11-43.45,74.52-42,24.6,1.66,47.52,25.14,66,48.26,18.67,23.3,32.72,46.22,42.71,79.14,10,33.1,16.09,76.18-2.4,105.77s-61.58,45.67-103.18,44.37C1734.18,1019.15,1694.05,1000.28,1670,970.51Z"/><path class="cls-3" d="M150.76,985.67c-13-16.9-17.5-39.59-27.13-58.42S99,893.44,95.16,876.09s3.41-36.77,17.64-47.89,35-13.94,51.9-20.32,29.66-16.61,43.6-18.53,29.06,4.45,43.29,12.3c14.39,8,27.88,17.65,34,30.7s5,29.51,11,49.38,18.84,43.3,12.16,55.16-33.36,12.6-53.67,25.5-34,38.11-51.76,44.93S163.81,1002.73,150.76,985.67Z"/><path class="cls-3" d="M1578.76,556.67c-13-16.9-17.5-39.59-27.13-58.42s-24.62-33.81-28.47-51.16,3.41-36.77,17.64-47.89,35-13.94,51.9-20.32,29.66-16.61,43.6-18.53,29.06,4.45,43.29,12.3c14.39,8,27.88,17.65,34,30.7,6.23,13,5,29.51,11,49.38s18.84,43.3,12.16,55.16-33.36,12.6-53.67,25.5-34,38.11-51.76,44.93S1591.81,573.73,1578.76,556.67Z"/><path class="cls-3" d="M572.7,931.86c2.72-21.18,15.62-40.36,22.12-60.5s6.5-41.31,16-56.3,28.42-23.59,46.35-21.39,34.6,14.89,51.06,22.33,32.72,9.23,43.93,17.72,17.41,23.7,21.92,39.32c4.51,15.83,7.23,32.19,2.31,45.72s-17.31,24.43-27.16,42.67S732,1005.37,718.86,1009c-13.31,3.67-32.5-14.68-56-19.93s-51,2.94-68.36-4.82S569.87,953.15,572.7,931.86Z"/><path class="cls-3" d="M747.26,286.07c-7-20.68,7.8-63,0-88.17-8-25.17-38.62-33.36-47.21-46.43-8.58-13.26,4.88-31.41,20.29-43.69,15.21-12.49,32.38-19.12,48-22.63s30-3.9,44.28-3.71c14.24,0,28.48.39,54-1.75s62.23-6.83,81.73,5.46,21.85,41.74,12.1,65.54c-10,23.6-32.19,41.55-50.72,55.59s-33.55,24.19-49.16,40.19C845,262.27,828.8,283.92,806.17,295,783.54,306.35,754.48,306.94,747.26,286.07Z"/></svg>