<svg id="Layer_1" data-name="Layer 1" xmlns="http://www.w3.org/2000/svg" viewBox="0 0 2496.42 2176.75"><defs><style>.cls-1{fill:#c94336;}.cls-1,.cls-2,.cls-3,.cls-4,.cls-5{stroke:#000;}.cls-1,.cls-2,.cls-3,.cls-4{stroke-miterlimit:10;}.cls-1,.cls-2,.cls-3,.cls-5{stroke-width:40px;}.cls-2{fill:#ffe197;}.cls-3{fill:#7dce94;}.cls-5{fill:none;stroke-linecap:round;stroke-linejoin:round;}</style></defs><title>home</title><path class="cls-1" d="M73.09,1133.85c9.24-11.11,17-24,27.91-33.08Q591.22,691.6,1082,283.14c78.5-65.35,163.16-65.13,241.73.36q153.35,127.81,306.32,256c5.55,4.63,11.33,9,20.11,15.94.54-10.18,1.22-17,1.22-23.91.08-78-.06-155.9.1-233.85.09-44.62,14.65-58.93,59.74-59q120.23-.16,240.46,0c42.92.1,58.31,15.66,58.33,58.75.08,178.69.28,357.38-.38,536.08-.06,16.51,5.14,26.76,17.62,37,92,75.62,183.44,152,275.08,228.05,37.31,31,39.41,52.16,8.66,88.87-22.66,27-45.17,54.24-68,81.13-25.37,29.85-49.54,32-79.7,6.82Q1697.37,887.08,1231.53,498.6c-9-7.5-18.06-14.93-28.82-23.82-35.2,29.26-70.12,58.22-105,87.27Q670.84,918,243.94,1274c-32.45,27-56,25.14-82.92-7-29.52-35.36-58.63-71.05-87.93-106.6Z"/><path class="cls-2" d="M996.88,1890.82q-250.35.08-500.72,0c-67-.06-103-36.6-103-104.23q-.09-321-.37-641.89c0-17.08,5.2-28,18.52-39Q795.57,790,1179,473.28c6.73-5.55,13.65-10.86,21.87-17.39,125.6,103.5,249.28,205.37,372.92,307.3Q1782.25,935,1990.9,1106.65c12.78,10.46,17.36,21.13,17.32,37.32q-.72,322-.35,644.09c0,65.86-36.49,102.66-102.23,102.73q-251.46.27-502.92,0Z"/><rect class="cls-3" x="336.88" y="1785.44" width="1723.94" height="157.05" rx="12"/><ellipse class="cls-4" cx="981.13" cy="1155.72" rx="51.75" ry="84.1"/><ellipse class="cls-4" cx="1398.73" cy="1161.66" rx="51.75" ry="84.1"/><path class="cls-5" d="M1318.42,1317.9c0,57.16-53.53,103.5-119.57,103.5s-119.57-46.34-119.57-103.5"/></svg>