<svg id="Layer_1" data-name="Layer 1" xmlns="http://www.w3.org/2000/svg" viewBox="0 0 2496.42 2176.75"><defs><style>.cls-1{fill:#7dce94;}.cls-2{fill:#dae6f1;}.cls-3{fill:#f9d0b4;}.cls-4{fill:#ffa9d0;}.cls-5{fill:#f64f50;}.cls-6{fill:#643895;}</style></defs><title>contato</title><g id="Layer_19" data-name="Layer 19"><path class="cls-1" d="M1477.54,255H829.78V485.56a4.08,4.08,0,0,0,7.41,2.35L896.73,397a47.81,47.81,0,0,1,82.66,47.19l-69.31,149.9c-13.41,29.86-29.9,58.18-48.28,85.27-.25.36-.48.75-.72,1.11h616.45a14.11,14.11,0,0,0,14.11-14.09V269.07a14.1,14.1,0,0,0-14.1-14.1Z"/><path class="cls-2" d="M843.87,789.07H476.31a14.1,14.1,0,0,0-14.1,14.1v74.29H858V803.17a14.08,14.08,0,0,0-14.09-14.1Z"/><path class="cls-3" d="M962.3,384.86A47.83,47.83,0,0,0,896.73,397l-59.54,90.87a4.08,4.08,0,0,1-7.41-2.35V196.45a45.74,45.74,0,0,0-90.52-9.28,46.47,46.47,0,0,0-.94,9.28V142.07c0-25-19.29-46.88-44.33-47.64a45.75,45.75,0,0,0-47.14,45.71v56.3a45.73,45.73,0,0,0-47.14-45.71c-25,.75-44.32,22.58-44.32,47.63v54.38A45.73,45.73,0,0,0,508.25,207c-25,.75-44.33,22.59-44.33,47.63v335.2a195.82,195.82,0,0,0,9.49,60.23c7,25.23,21.71,53.64,21.71,101v38H828.18l.81-7.36c2.09-49.54,17-79,32.79-102.3,18.38-27.09,34.87-55.41,48.29-85.26l69.31-149.9a47.81,47.81,0,0,0-17.08-59.39Z"/><path class="cls-4" d="M858.76,877.46H461.42a14.09,14.09,0,0,0-14.09,14.09V1539.3h215a4.08,4.08,0,0,0,2.36-7.41l-90.87-59.54A47.81,47.81,0,0,1,621,1389.69L770.93,1459c29.85,13.42,58.17,29.91,85.26,48.29,5.17,3.51,10.72,7,16.66,10.24v-626a14.08,14.08,0,0,0-14.09-14.09Z"/><path class="cls-2" d="M980,1511.12a14.1,14.1,0,0,0-14.1,14.11v367.55a14.11,14.11,0,0,0,14.1,14.11h74.29V1511.13H980Z"/><path class="cls-3" d="M958.5,1540.09c-49.54-2.09-79-17-102.31-32.79-27.08-18.38-55.4-34.87-85.25-48.29L621,1389.7a47.81,47.81,0,0,0-47.19,82.66l90.87,59.54a4.08,4.08,0,0,1-2.36,7.41H373.25a45.74,45.74,0,0,0-9.27,90.52,46.44,46.44,0,0,0,9.27.94H318.87c-25,0-46.88,19.3-47.63,44.33A45.73,45.73,0,0,0,317,1722.24h56.29a45.74,45.74,0,0,0-45.71,47.14c.76,25,22.59,44.33,47.64,44.33h54.38a45.73,45.73,0,0,0-45.71,47.14c.75,25,22.58,44.33,47.62,44.33h335.2a195.83,195.83,0,0,0,60.23-9.5c25.23-7,53.64-21.71,101-21.71h38v-333Z"/><path class="cls-5" d="M1708.7,1688.83l-59.55,90.87a47.81,47.81,0,0,1-82.66-47.19l69.31-149.9c13.41-29.86,29.91-58.18,48.29-85.26.24-.36.47-.75.72-1.11H1068.35a14.09,14.09,0,0,0-14.1,14.09v397.33a14.09,14.09,0,0,0,14.09,14.1h647.75V1691.17a4.06,4.06,0,0,0-7.39-2.34Z"/><path class="cls-2" d="M1687.92,1299.28v74.29a14.1,14.1,0,0,0,14.1,14.1h367.56a14.1,14.1,0,0,0,14.1-14.1v-74.29Z"/><path class="cls-3" d="M2072.46,1526.65c-7-25.23-21.71-53.64-21.71-101v-38h-333l-.81,7.37c-2.1,49.53-17,79-32.8,102.3-18.38,27.09-34.87,55.4-48.28,85.27l-69.31,149.9a47.81,47.81,0,0,0,82.66,47.19l59.55-90.87a4.08,4.08,0,0,1,7.41,2.35v289.1a45.74,45.74,0,0,0,90.52,9.28,46.47,46.47,0,0,0,.94-9.28v54.38c0,25,19.29,46.88,44.33,47.64a45.75,45.75,0,0,0,47.14-45.71v-56.3a45.72,45.72,0,0,0,47.14,45.71c25-.75,44.32-22.58,44.32-47.63V1924a45.74,45.74,0,0,0,47.15,45.71c25-.75,44.32-22.59,44.32-47.62v-335.2a196.45,196.45,0,0,0-9.52-60.23Z"/><path class="cls-6" d="M1883.54,637.43a4.09,4.09,0,0,0-2.36,7.42l90.87,59.54a47.81,47.81,0,0,1-47.19,82.66L1775,717.74c-29.85-13.42-58.18-29.91-85.26-48.29-5.17-3.51-10.73-7-16.67-10.24v626a14.11,14.11,0,0,0,14.1,14.1h397.34a14.09,14.09,0,0,0,14.09-14.1V637.43Z"/><path class="cls-2" d="M1565.93,269.86h-74.29V665.61h74.29a14.09,14.09,0,0,0,14.09-14.1V284A14.09,14.09,0,0,0,1565.93,269.86Z"/><path class="cls-3" d="M2228.94,454.51h-56.29a45.75,45.75,0,0,0,45.71-47.14c-.75-25-22.59-44.33-47.63-44.33h-54.38a45.74,45.74,0,0,0,45.71-47.14c-.76-25-22.59-44.33-47.64-44.33H1779.23a195.83,195.83,0,0,0-60.23,9.5c-25.24,7-53.65,21.71-101,21.71h-38V635.83l7.36.81c49.54,2.09,79.05,17,102.31,32.79,27.08,18.38,55.4,34.88,85.26,48.29L1924.84,787A47.81,47.81,0,0,0,1972,704.37l-90.87-59.54a4.08,4.08,0,0,1,2.35-7.41h289.11a45.74,45.74,0,0,0,9.27-90.51,46.44,46.44,0,0,0-9.27-.94H2227c25,0,46.88-19.3,47.63-44.33a45.69,45.69,0,0,0-45.69-47.13Z"/><path d="M738.32,176a20.45,20.45,0,0,0-20.45,20.45V388.79a20.45,20.45,0,1,0,40.9,0V196.45A20.45,20.45,0,0,0,738.32,176Z"/><path d="M646.86,176a20.45,20.45,0,0,0-20.45,20.45V388.79a20.45,20.45,0,1,0,40.9,0V196.45A20.44,20.44,0,0,0,646.86,176Z"/><path d="M555.39,176a20.45,20.45,0,0,0-20.45,20.45V388.79a20.45,20.45,0,0,0,40.9,0V196.45A20.44,20.44,0,0,0,555.39,176Z"/><path d="M843.88,768.62H476.31a34.59,34.59,0,0,0-34.55,34.55v67.5a20.45,20.45,0,0,0,40.9,0V809.52H837.51v60.59a20.45,20.45,0,1,0,40.9,0v-67A34.56,34.56,0,0,0,843.88,768.62Z"/><path d="M973.64,367.85c-31-20.67-72.11-13-94,18l-29.41,44.88V196.45a66.4,66.4,0,0,0-20.41-47.77,66.35,66.35,0,0,0-71.37-13.23C755.22,102,727.83,75,694.62,74a66.18,66.18,0,0,0-68,61.31,65.64,65.64,0,0,0-27.47-5c-33.2,1-60.57,27.94-63.84,61.38a66.8,66.8,0,0,0-27.63-5.08c-35.38,1.06-64.16,31.6-64.16,68.06v335.2A215.66,215.66,0,0,0,453.84,656c1.82,6.48,4,12.87,6.28,19.63,6.83,20.09,14.57,42.87,14.57,75.49v28.54a20.45,20.45,0,0,0,40.9,0V751.08c0-39.37-9.28-66.69-16.74-88.65-2.16-6.33-4.19-12.31-5.7-17.79-.08-.29-.17-.56-.25-.85a175.24,175.24,0,0,1-8.52-53.93V254.66c0-14.58,11-26.78,24.49-27.18a25.28,25.28,0,0,1,26.07,25.27,20.45,20.45,0,0,0,40.9,0V198.37c0-14.59,11-26.78,24.49-27.18a25.26,25.26,0,0,1,26.07,25.26,20.45,20.45,0,1,0,40.9,0v-56.3a25.28,25.28,0,0,1,26.07-25.27c13.5.4,24.49,12.6,24.49,27.19v54.38a20.45,20.45,0,0,0,40.9,0,26.45,26.45,0,0,1,.51-5.14,25.29,25.29,0,0,1,50.05,5.14V485.57a24.45,24.45,0,0,0,17.08,23.37c10.24,3.24,21.26-.45,27.88-9.81l59.14-90.28a27.36,27.36,0,0,1,47.39,26.8l-69.4,150.1c-12.13,27-27.36,53.88-46.54,82.15-15.66,23.06-33.93,56.75-36.32,112.94a20.47,20.47,0,0,0,19.58,21.3H829a20.45,20.45,0,0,0,20.42-19.58c1.92-45.5,15.22-71,29.29-91.69,20.54-30.26,36.9-59.17,49.93-88.16L998,452.62a68,68,0,0,0-24.39-84.77Z"/><path d="M858.76,857H461.42a34.59,34.59,0,0,0-34.55,34.55v644a20.45,20.45,0,1,0,40.9,0V897.91H852.4V1513.6a20.45,20.45,0,1,0,40.9,0v-622A34.58,34.58,0,0,0,858.76,857Z"/><path d="M565.58,1610.32H373.24a20.45,20.45,0,1,0,0,40.9H565.59a20.45,20.45,0,1,0,0-40.9Z"/><path d="M565.58,1701.78H373.24a20.45,20.45,0,1,0,0,40.9H565.59a20.45,20.45,0,1,0,0-40.9Z"/><path d="M565.58,1793.24H373.24a20.45,20.45,0,1,0,0,40.9H565.59a20.45,20.45,0,1,0,0-40.9Z"/><path d="M1047.47,1886.43H986.31V1531.57h60.6a20.45,20.45,0,0,0,0-40.9H980a34.6,34.6,0,0,0-34.55,34.56v367.55A34.6,34.6,0,0,0,980,1927.34h67.5a20.46,20.46,0,0,0,0-40.91Z"/><path d="M956.42,1853.5H927.88c-39.37,0-66.69,9.29-88.64,16.75-6.33,2.15-12.32,4.19-17.8,5.7l-.85.25a174.76,174.76,0,0,1-53.94,8.51H431.46c-14.58,0-26.77-11-27.18-24.49a25.26,25.26,0,0,1,25.27-26.07,20.45,20.45,0,0,0,0-40.9H375.17c-14.58,0-26.78-11-27.19-24.48a25.28,25.28,0,0,1,25.27-26.08,20.45,20.45,0,0,0,0-40.9H317a25.26,25.26,0,0,1-25.27-26.07c.41-13.5,12.6-24.49,27.18-24.49h54.37a20.45,20.45,0,0,0,0-40.9,26.59,26.59,0,0,1-5.14-.51,25.29,25.29,0,0,1,5.15-50H662.36a24.44,24.44,0,0,0,23.38-17.1c3.25-10.22-.45-21.26-9.81-27.87l-90.27-59.14a27.36,27.36,0,0,1,26.81-47.39l150.1,69.4c27,12.14,53.88,27.36,82.15,46.55,23.07,15.66,56.75,33.93,112.94,36.3a20.45,20.45,0,1,0,1.72-40.86c-45.49-1.92-71-15.21-91.68-29.28-30.26-20.54-59.16-36.9-88.17-49.93l-150.1-69.41a68.05,68.05,0,0,0-84.77,24.41c-20.65,31-13,72.1,18,94l44.87,29.41H373.25a66.43,66.43,0,0,0-47.76,20.41,66.33,66.33,0,0,0-13.24,71.37c-33.48,3.23-60.45,30.63-61.44,63.84a66.18,66.18,0,0,0,61.3,68,66,66,0,0,0-5,27.47c1,33.19,27.93,60.58,61.38,63.84a66.27,66.27,0,0,0-5.08,27.62c1.07,35.38,31.59,64.16,68.07,64.16h335.2a215.58,215.58,0,0,0,66.11-10.36c6.47-1.8,12.86-4,19.62-6.28,20.1-6.83,42.88-14.57,75.48-14.57h28.54a20.45,20.45,0,0,0,0-40.9Z"/><path d="M1708.53,1901.32H1074.71V1516.69h603.91a20.45,20.45,0,0,0,0-40.9H1068.36a34.59,34.59,0,0,0-34.55,34.54v397.34a34.59,34.59,0,0,0,34.55,34.55h640.18a20.45,20.45,0,1,0,0-40.9Z"/><path d="M1807.57,1767.5a20.44,20.44,0,0,0-20.45,20.45v192.34a20.45,20.45,0,0,0,40.9,0V1788a20.45,20.45,0,0,0-20.45-20.45Z"/><path d="M1899,1767.5a20.44,20.44,0,0,0-20.45,20.45v192.34a20.45,20.45,0,0,0,40.9,0V1788A20.45,20.45,0,0,0,1899,1767.5Z"/><path d="M1990.5,1767.5a20.44,20.44,0,0,0-20.45,20.45v192.34a20.45,20.45,0,0,0,40.9,0V1788a20.46,20.46,0,0,0-20.45-20.45Z"/><path d="M2083.68,1285.62a20.44,20.44,0,0,0-20.45,20.45v61.15H1708.37v-60.59a20.45,20.45,0,1,0-40.9,0v66.95a34.59,34.59,0,0,0,34.55,34.55h367.56a34.59,34.59,0,0,0,34.55-34.55v-67.5a20.45,20.45,0,0,0-20.45-20.46Z"/><path d="M2092.05,1520.78c-1.81-6.48-4-12.87-6.28-19.63-6.83-20.09-14.57-42.88-14.57-75.49v-28.54a20.45,20.45,0,1,0-40.9,0v28.54c0,39.37,9.29,66.69,16.75,88.65,2.15,6.33,4.18,12.31,5.69,17.79.08.28.17.56.25.85a174.9,174.9,0,0,1,8.52,53.93v335.2c0,14.58-11,26.78-24.49,27.18A25.28,25.28,0,0,1,2011,1924a20.45,20.45,0,1,0-40.9,0v54.38c0,14.59-11,26.78-24.49,27.18a25.4,25.4,0,0,1-18.4-7.12,25.08,25.08,0,0,1-7.67-18.15,20.45,20.45,0,1,0-40.9,0v56.3a25.26,25.26,0,0,1-26.07,25.27c-13.5-.4-24.48-12.6-24.48-27.19v-54.38a20.45,20.45,0,0,0-40.9,0,25.82,25.82,0,0,1-.52,5.14,25.29,25.29,0,0,1-50-5.14V1691.16a24.45,24.45,0,0,0-17.09-23.37c-10.26-3.25-21.27.45-27.88,9.81l-59.14,90.28a27.36,27.36,0,0,1-47.39-26.8l69.4-150.1c12.13-27,27.36-53.88,46.55-82.15,15.65-23.06,33.92-56.75,36.31-112.94a20.47,20.47,0,0,0-19.58-21.3c-11.13-.71-20.81,8.28-21.3,19.57-1.92,45.5-15.21,71-29.28,91.69-20.55,30.26-36.91,59.17-49.93,88.16l-69.4,150.1a68,68,0,0,0,24.4,84.77c31,20.66,72.11,13,94-18l29.41-44.88v234.27a66.44,66.44,0,0,0,20.41,47.77,66.35,66.35,0,0,0,71.37,13.23c3.23,33.47,30.62,60.44,63.84,61.44.68,0,1.37,0,2.06,0a66.2,66.2,0,0,0,66-61.34,67,67,0,0,0,27.47,5c33.2-1,60.58-27.93,63.84-61.37a66.6,66.6,0,0,0,27.63,5.08c35.38-1.07,64.17-31.6,64.17-68.07v-335.2a215.94,215.94,0,0,0-10.37-66.08Z"/><path d="M2098.57,622.37a20.44,20.44,0,0,0-20.45,20.45v636H1693.49V665.4a20.45,20.45,0,1,0-40.9,0v619.79a34.58,34.58,0,0,0,34.55,34.54h397.34a34.59,34.59,0,0,0,34.55-34.54V642.82a20.46,20.46,0,0,0-20.46-20.45Z"/><path d="M2172.65,525.52H1980.31a20.45,20.45,0,0,0,0,40.9h192.34a20.45,20.45,0,0,0,0-40.9Z"/><path d="M2172.65,434.06H1980.31a20.45,20.45,0,0,0,0,40.9h192.34a20.45,20.45,0,0,0,0-40.9Z"/><path d="M2172.65,342.6H1980.31a20.45,20.45,0,0,0,0,40.9h192.34a20.45,20.45,0,0,0,0-40.9Z"/><path d="M1565.93,249.41h-67.5a20.45,20.45,0,0,0,0,40.9h61.15V645.16H1499a20.45,20.45,0,0,0,0,40.9h67a34.59,34.59,0,0,0,34.56-34.55V284a34.61,34.61,0,0,0-34.56-34.55Z"/><path d="M2295.09,502.25a66.18,66.18,0,0,0-61.3-68,66.05,66.05,0,0,0,5-27.48c-1-33.18-27.94-60.57-61.38-63.83a66.29,66.29,0,0,0,5.08-27.63c-1.07-35.38-31.59-64.15-68.07-64.15h-335.2a215.88,215.88,0,0,0-66.11,10.35c-6.47,1.81-12.86,4-19.62,6.29-20.1,6.83-42.88,14.56-75.48,14.56h-28.54a20.45,20.45,0,0,0,0,40.9H1618c39.37,0,66.68-9.28,88.63-16.74,6.34-2.15,12.32-4.19,17.8-5.7l.85-.26a175.1,175.1,0,0,1,53.94-8.5h335.2c14.58,0,26.77,11,27.18,24.49a25.26,25.26,0,0,1-25.27,26.07,20.45,20.45,0,1,0,0,40.9h54.38c14.58,0,26.78,11,27.19,24.48a25.3,25.3,0,0,1-25.27,26.08,20.45,20.45,0,0,0,0,40.9h56.29A25.26,25.26,0,0,1,2254.21,501c-.41,13.5-12.6,24.49-27.18,24.49h-54.37a20.45,20.45,0,1,0,0,40.9,26.59,26.59,0,0,1,5.14.51,25.29,25.29,0,0,1-5.15,50H1883.54a24.44,24.44,0,0,0-23.38,17.09c-3.25,10.23.45,21.26,9.81,27.87l90.27,59.14a27.37,27.37,0,0,1-26.81,47.4l-150.1-69.4c-27-12.14-53.88-27.36-82.15-46.55-23.07-15.66-56.75-33.93-112.94-36.3a20.44,20.44,0,1,0-1.72,40.85c45.49,1.93,71,15.22,91.68,29.29,30.26,20.54,59.16,36.9,88.17,49.93l150.1,69.41a68.09,68.09,0,0,0,84.78-24.41c20.65-31,13-72.1-18-94l-44.88-29.4h234.28a66.43,66.43,0,0,0,47.76-20.41,66.33,66.33,0,0,0,13.24-71.37c33.47-3.23,60.44-30.63,61.43-63.85Z"/><path d="M1477.54,234.52H835.32a20.45,20.45,0,0,0,0,40.9h635.87V660.05H866a20.45,20.45,0,0,0,0,40.9h611.55a34.59,34.59,0,0,0,34.55-34.54V269.07A34.59,34.59,0,0,0,1477.54,234.52Z"/></g></svg>