<svg xmlns="http://www.w3.org/2000/svg" viewBox="0 0 1000 404"><defs><style>.cls-1{isolation:isolate;}.cls-2{fill:#fccf07;stroke:#424242;stroke-miterlimit:10;stroke-width:4px;}.cls-3{mix-blend-mode:hard-light;}.cls-4{fill:#fbb03b;}.cls-5{fill:#494949;}.cls-6{fill:#7dce94;}.cls-7{fill:#ffa9d0;}.cls-8{fill:#f64f50;}.cls-9{fill:#643895;}</style></defs><title>logo-navbar</title><g class="cls-1"><g id="Camada_1" data-name="Camada 1"><path class="cls-2" d="M100,241c-2-4.48-3.22-7.21-4.43-21.81L93.26,191c.09-12.91-7.66-22.51-20.94-21.19l-10.06.88q3.21,36.48,6.43,72.95Q54.35,244.93,40,246.28L23.15,67.2q22.44-2.08,44.88-4c26-2.19,46.16,10.11,47.24,37.69.43,5.64.65,8.45,1.08,14.09,1.86,14.71-3.14,30.19-16.34,37.88,15.88,5.26,21.37,21.24,22.3,36.66.85,11.07,1.27,16.6,2.12,27.67.66,8.71,1.42,15.1,4.79,21.54Q114.61,239.81,100,241ZM55.15,90.09q2.41,27.52,4.85,55c4.58-.41,6.86-.61,11.44-1,11.36-.22,17.77-9.48,16-20.43-.59-7.07-.88-10.6-1.46-17.67C84.94,93.23,79.9,88,69.4,88.85Z"/><path class="cls-2" d="M166.69,131.71q20.13-1.34,40.27-2.52l1.5,25.65q-20,1.18-40.06,2.51,1.74,26.28,3.5,52.56,24.93-1.65,49.89-3.07c.58,10.26.87,15.39,1.44,25.66q-39.18,2.26-78.34,5.05l-13-179.41q40.6-2.88,81.22-5.23l1.45,25.65Q189,80,163.36,81.71Z"/><path class="cls-2" d="M271.52,47.89c26.33-.64,45.49,16.37,45.55,43.41.08,2.26.13,3.39.21,5.65-11.17.4-16.75.62-27.92,1.09-.12-3-.18-4.47-.31-7.45-.53-12.83-6.13-17.49-15.57-17.07s-14.78,5.77-14,18.4c2.49,39.67,59.55,49.23,61.24,92.84,1,25.72-15.21,45.23-41.22,46.94-26.7,1.75-43.79-17.35-45.27-43-.23-4.41-.35-6.62-.59-11,11-.59,16.49-.87,27.48-1.4.25,5.13.37,7.7.62,12.83.62,12.84,6.62,17.17,15.81,16.76s14.88-5.4,14.23-18.11c-1-18.9-17.05-29.77-30.35-41-16.58-14-30.13-28.94-31.41-51.52C228.56,69.2,244.45,48.54,271.52,47.89Z"/><path class="cls-2" d="M332.85,47.56q14.91-.5,29.82-.9l4.86,179.81q-14.38.39-28.77.86Z"/><path class="cls-2" d="M384.36,46.12q14.91-.33,29.82-.59,1.31,77.09,2.6,154.16,23.79-.39,47.59-.57l.18,25.7q-38.06.31-76.11,1.13Z"/><path class="cls-2" d="M476.27,44.87q14.91-.07,29.83-.06-.11,89.94-.22,179.88-14.38,0-28.77.05Z"/><path class="cls-2" d="M619.92,226.15q-14.52-.36-29-.62-2.19-16.36-4.4-32.72-17.78-.31-35.55-.49-2.66,16.29-5.3,32.58c-10.57-.1-15.85-.13-26.42-.17q15-89.92,31.07-179.67,21.83.24,43.66.62Q607.42,135.85,619.92,226.15Zm-65-58.21q14,.15,28.05.39-6.27-45.6-12.76-91.17Q562.43,122.54,554.9,167.94Z"/><path class="cls-2" d="M665.32,127.46q18.95.62,37.88,1.39l-1.05,25.68q-18.84-.76-37.68-1.39-1.23,37.11-2.45,74.22-14.38-.48-28.77-.86l4.89-179.81Q677.58,47.8,717,49.44l-1.1,25.67q-24.39-1-48.8-1.84Q666.21,100.36,665.32,127.46Z"/><path class="cls-2" d="M731.37,50.07q14.89.68,29.8,1.45-4,77-7.91,154,23.78,1.23,47.53,2.68c-.62,10.26-.94,15.39-1.56,25.65q-38-2.28-76-4.06Q727.28,139.93,731.37,50.07Z"/><path class="cls-2" d="M823.19,55.08q14.88.95,29.77,2-6.23,89.72-12.47,179.44-14.36-1-28.73-1.91Z"/><path class="cls-2" d="M973.86,66.92q-19.54,42-38.69,84.23,12.27,47.46,24,95.06-15.12-1.43-30.25-2.75-8.66-36.5-17.6-72.93-14.94,34.46-29.62,69c-10.75-.84-16.13-1.24-26.89-2q19.45-45,39.4-89.79Q882.34,103,870,58.28q15.42,1.13,30.85,2.34,8.58,33.93,16.93,67.9,14.13-32.1,28.5-64.1C957.32,65.39,962.84,65.89,973.86,66.92Z"/><g class="cls-3"><path class="cls-4" d="M223.84,284A31.3,31.3,0,0,1,221,297a42.11,42.11,0,0,1-18.63,19.87,30.43,30.43,0,0,1-12.66,3.62c-.09,1.48-.15,3.35-.19,5.6s-.18,4.61-.43,7.07-.59,4.92-1,7.38a30.64,30.64,0,0,1-2,6.64,13.91,13.91,0,0,1-3.32,4.8,7.15,7.15,0,0,1-5,1.84,7,7,0,0,1-5.48-2.27,15.27,15.27,0,0,1-3.07-5.48,32.41,32.41,0,0,1-1.42-6.7c-.24-2.34-.41-4.32-.49-6q-.24-3.57-.3-7c-.05-2.3-.07-4.63-.07-7v-6q0-4.37.07-10t.18-11.68q.12-6.09.37-11.32c.16-3.48.35-6.45.55-8.91s.47-3.9.8-4.31a9,9,0,0,1,.74-.55c.41-.29.86-.57,1.35-.86l1.36-.8a9.21,9.21,0,0,1,.86-.49A75.11,75.11,0,0,1,185.6,259a41.06,41.06,0,0,1,13.4-2.33,23,23,0,0,1,10.27,2.27,24.86,24.86,0,0,1,7.87,6,26.29,26.29,0,0,1,5,8.73A31.14,31.14,0,0,1,223.84,284Zm-21.27,2.83a7.88,7.88,0,0,0-1.17-4.31,4.23,4.23,0,0,0-3.87-1.84,12.57,12.57,0,0,0-4.68.92q-2.34.92-4.3,1.91c.24,2.87.47,5.65.68,8.36a64.55,64.55,0,0,1,.06,8.36q2-1,4.3-2.27A30,30,0,0,0,197.9,295a16.75,16.75,0,0,0,3.32-3.63A8.15,8.15,0,0,0,202.57,286.79Z"/><path class="cls-5" d="M224,284a33.27,33.27,0,0,1-2.82,13.31,42.44,42.44,0,0,1-7.26,11.66,41.12,41.12,0,0,1-10.72,8.82,30.08,30.08,0,0,1-13.46,4.07l1.26-1.26c-.1,2.69-.15,5.33-.4,8.1-.1,1.37-.19,2.74-.32,4.11s-.43,2.71-.64,4.06l-.69,4.05a35.4,35.4,0,0,1-1.12,4,17.57,17.57,0,0,1-4.31,7.21,7.88,7.88,0,0,1-3.83,2.05,9.24,9.24,0,0,1-4.28-.14,7.2,7.2,0,0,1-3.61-2.31,14.83,14.83,0,0,1-2.25-3.52,29.22,29.22,0,0,1-2.16-7.95c-.19-1.36-.28-2.71-.42-4.07s-.29-2.7-.36-4.06c-.42-5.42-.54-10.86-.69-16.27s-.19-10.85-.19-16.27l0-8.13.19-8.15c0-2.72.2-5.44.34-8.16l.23-4.09c0-.69.13-1.39.23-2.11.06-.36.12-.73.21-1.13,0-.19.1-.4.18-.64a3.26,3.26,0,0,1,.48-.94l.07-.09.05,0a11.29,11.29,0,0,1,1.16-.87l1-.67c.7-.43,1.26-.77,2-1.19,1.36-.78,2.73-1.52,4.15-2.2a79.23,79.23,0,0,1,8.68-3.52,41.75,41.75,0,0,1,9.25-2.09,34.32,34.32,0,0,1,4.75-.2,25,25,0,0,1,4.79.52,23.48,23.48,0,0,1,8.72,3.82,25.37,25.37,0,0,1,6.6,6.67A31.7,31.7,0,0,1,224,284Zm-.3,0a29.74,29.74,0,0,0-1.41-9,28.64,28.64,0,0,0-1.73-4.21,24.87,24.87,0,0,0-2.45-3.8,23.6,23.6,0,0,0-6.68-5.88,21.5,21.5,0,0,0-8.24-2.92,31.62,31.62,0,0,0-8.79.19,44.2,44.2,0,0,0-8.59,2.19,76.56,76.56,0,0,0-8.29,3.51c-1.33.68-2.67,1.37-4,2.12s-2.78,1.63-3.53,2.19l.11-.13c.13-.18.06-.11,0,0s-.07.21-.1.34-.11.56-.16.87c-.09.62-.16,1.27-.22,1.92l-.3,4c-.19,2.69-.41,5.37-.49,8.07l-.34,8.09-.23,8.11c-.2,5.41-.26,10.81-.44,16.23s-.25,10.81-.06,16.21c0,1.35.12,2.69.21,4s.16,2.7.31,4a27.65,27.65,0,0,0,2,7.7c1.16,2.31,2.79,4.69,5.3,5.23a8.28,8.28,0,0,0,3.77,0,6.21,6.21,0,0,0,3.15-1.88,16.11,16.11,0,0,0,3.57-6.81,33.44,33.44,0,0,0,.85-3.85l.46-4c.14-1.33.35-2.66.42-4s.11-2.67.17-4c.15-2.63.17-5.41.28-8.13l0-1.19,1.22-.08a30.19,30.19,0,0,0,6.39-1.09,34.81,34.81,0,0,0,6.08-2.41,42.75,42.75,0,0,0,10.74-7.76A41,41,0,0,0,220.6,297a32.47,32.47,0,0,0,2.3-6.34A30.31,30.31,0,0,0,223.69,284Z"/><path class="cls-5" d="M202.42,286.79a6.45,6.45,0,0,0-.38-2.23,5.45,5.45,0,0,0-1.17-1.85c-1-1-2.24-1-3.56-.81a23.4,23.4,0,0,0-4.07.85c-1.43.48-2.92.85-4.39,1.31l.36-.65a36.07,36.07,0,0,0,.76,8.35c.25,1.4.51,2.81.63,4.24s.15,2.85.14,4.27l-2.1-1.38c1.41-.83,2.82-1.67,4.25-2.43s2.71-1.59,4-2.46a21.91,21.91,0,0,0,3.72-2.89A6,6,0,0,0,202.42,286.79Zm.3,0a11.65,11.65,0,0,1-1,5,13.84,13.84,0,0,1-3,4.37,21.2,21.2,0,0,1-4.23,3.06c-1.48.8-3,1.5-4.52,2.22l-2.38,1.13.27-2.51c.15-1.36.24-2.73.35-4.1s.26-2.75.3-4.14a35.46,35.46,0,0,0-.6-8.35l-.08-.39.45-.26c1.35-.79,2.68-1.67,4.07-2.43a9.86,9.86,0,0,1,4.94-1.06,6.16,6.16,0,0,1,2.65.7,4.47,4.47,0,0,1,1.9,2A11.41,11.41,0,0,1,202.72,286.79Z"/></g><path class="cls-4" d="M279.06,332.54c0,1.47-.06,3.4-.18,5.78a34.82,34.82,0,0,1-1.05,6.94,16.25,16.25,0,0,1-2.7,5.85,6.09,6.09,0,0,1-5.17,2.46,8.62,8.62,0,0,1-7-3,10.57,10.57,0,0,1-2.33-7.37,30.56,30.56,0,0,1-8.92,5.41,27.42,27.42,0,0,1-10.15,2,14,14,0,0,1-6.76-1.72,20.91,20.91,0,0,1-5.66-4.43,22,22,0,0,1-3.93-6.08,16.59,16.59,0,0,1-1.48-6.71,15.83,15.83,0,0,1,3.63-10.33,33.42,33.42,0,0,1,8.92-7.56,52.06,52.06,0,0,1,11.25-5,65.24,65.24,0,0,1,10.64-2.46,9.29,9.29,0,0,1,.06-1.11,9,9,0,0,0,.06-1.1,8.9,8.9,0,0,0-2.09-6.15,7.51,7.51,0,0,0-5.9-2.34,12.23,12.23,0,0,0-5.29,1.05,33,33,0,0,0-4.18,2.33q-2,1.29-3.94,2.34a9.26,9.26,0,0,1-4.43,1.05,6.63,6.63,0,0,1-4.61-1.73,5.67,5.67,0,0,1-1.9-4.42,12.28,12.28,0,0,1,2.39-7.38,21.28,21.28,0,0,1,6-5.6,33.23,33.23,0,0,1,7.87-3.57,27,27,0,0,1,7.81-1.29,28.43,28.43,0,0,1,6.64.8,24.51,24.51,0,0,1,11.62,6.52,19.41,19.41,0,0,1,3.88,5.6,53.32,53.32,0,0,1,3.56,9.65,87.42,87.42,0,0,1,2.09,10.45c.5,3.57.82,7.14,1,10.7S279.06,329.17,279.06,332.54Zm-19.67-3.94-.37-8.36a2,2,0,0,1-.49-.06,2.15,2.15,0,0,0-.5-.07,13.25,13.25,0,0,0-4,.8,21.31,21.31,0,0,0-4.62,2.22,18.33,18.33,0,0,0-3.75,3.13,5.35,5.35,0,0,0-1.53,3.57,2.37,2.37,0,0,0,1.23,2.34,6.21,6.21,0,0,0,2.83.61,14,14,0,0,0,5.78-1.41C256,330.43,257.83,329.5,259.39,328.6Z"/><path class="cls-5" d="M279.21,332.54a78.47,78.47,0,0,1-.61,10.26,24.73,24.73,0,0,1-1.27,5,15.45,15.45,0,0,1-1.11,2.37,9.54,9.54,0,0,1-1.59,2.16,7,7,0,0,1-5.09,1.83,10,10,0,0,1-5.28-1.36,9.74,9.74,0,0,1-3.64-4.2,12.84,12.84,0,0,1-1.12-5.43l1.85.88a30.46,30.46,0,0,1-10.6,6.32,26.9,26.9,0,0,1-6.09,1.38,27.23,27.23,0,0,1-3.13.17,15.39,15.39,0,0,1-3.24-.36,17,17,0,0,1-5.84-2.64,21.77,21.77,0,0,1-4.61-4.27,22.5,22.5,0,0,1-3.26-5.31,18.5,18.5,0,0,1-1.6-6,17.63,17.63,0,0,1,.63-6.18,16.91,16.91,0,0,1,2.79-5.5,34.45,34.45,0,0,1,9.1-7.93,54.59,54.59,0,0,1,10.89-5.1,72.64,72.64,0,0,1,11.67-3l-.62.71.07-2.28a10.51,10.51,0,0,0-.25-2.12,7.09,7.09,0,0,0-1.94-3.55c-1.88-1.9-5-1.95-7.72-1.37a9,9,0,0,0-1.94.64c-.63.3-1.31.66-1.95,1s-1.27.75-1.88,1.15-1.32.82-2,1.23l-2,1.23a9.56,9.56,0,0,1-2.36,1,10.84,10.84,0,0,1-2.57.41,9.08,9.08,0,0,1-2.67-.24,7.8,7.8,0,0,1-2.53-1.14,7.87,7.87,0,0,1-2-2,7,7,0,0,1-1.09-2.64,7.2,7.2,0,0,1-.15-1.38c0-.44,0-.85,0-1.28a13.7,13.7,0,0,1,1.3-4.94,15.14,15.14,0,0,1,1.3-2.2,21.93,21.93,0,0,1,1.54-1.92,25,25,0,0,1,7.8-5.77,35.35,35.35,0,0,1,9.09-3,23.28,23.28,0,0,1,4.87-.41,29.71,29.71,0,0,1,4.81.49,26,26,0,0,1,9,3.42,25.66,25.66,0,0,1,3.87,2.92,20.13,20.13,0,0,1,3.21,3.67,23.52,23.52,0,0,1,2.25,4.25c.62,1.44,1.16,2.91,1.64,4.39a65.36,65.36,0,0,1,2.19,9c.55,3,.93,6.09,1.18,9.15C279.18,320.29,279.07,326.42,279.21,332.54Zm-.3,0-.29-9.17a86.47,86.47,0,0,0-.87-9.1,78.76,78.76,0,0,0-4.43-17.59q-.84-2.08-1.86-4.08a21.09,21.09,0,0,0-2.22-3.74,22.13,22.13,0,0,0-6.47-5.58,23.92,23.92,0,0,0-8.08-2.89,27.18,27.18,0,0,0-4.31-.38,23.51,23.51,0,0,0-4.25.4,32.21,32.21,0,0,0-8.26,2.74,23.12,23.12,0,0,0-6.94,5c-.48.52-.93,1.07-1.36,1.64a12.34,12.34,0,0,0-1.06,1.73,10.75,10.75,0,0,0-1.08,3.86,5,5,0,0,0,.65,3.48,4.94,4.94,0,0,0,1.24,1.26,5,5,0,0,0,1.62.76,7.94,7.94,0,0,0,3.84-.07,6.47,6.47,0,0,0,1.83-.76l1.94-1.11c.65-.38,1.28-.71,2-1.14s1.36-.81,2.06-1.18,1.39-.7,2.15-1a12.55,12.55,0,0,1,2.43-.73,14.88,14.88,0,0,1,4.94-.05,8.06,8.06,0,0,1,4.54,2.35,8.81,8.81,0,0,1,2.21,4.5,11.82,11.82,0,0,1,.2,2.44l-.16,2.29-.05.64-.58.07A56.33,56.33,0,0,0,236,314.49a31.06,31.06,0,0,0-8.67,7.83,15.14,15.14,0,0,0-2.67,10.84,16.66,16.66,0,0,0,1.71,5.38,21,21,0,0,0,3.19,4.69,20.66,20.66,0,0,0,4.3,3.63,14.2,14.2,0,0,0,5,2.14,12.73,12.73,0,0,0,2.69.28,24.12,24.12,0,0,0,2.82-.17,28.64,28.64,0,0,0,5.55-1.21,30.77,30.77,0,0,0,10-5.51l2-1.68-.15,2.56a10.8,10.8,0,0,0,.63,4.6,8,8,0,0,0,2.76,3.63,8.48,8.48,0,0,0,4.45,1.42,5.86,5.86,0,0,0,4.41-1.27,8.67,8.67,0,0,0,1.55-1.87,14.6,14.6,0,0,0,1.2-2.2,24.24,24.24,0,0,0,1.41-4.86C278.85,339.39,278.73,335.94,278.91,332.54Z"/><path class="cls-5" d="M259.26,328.53c-.23-.8-.41-1.54-.59-2.26s-.33-1.41-.44-2.08a30.5,30.5,0,0,1-.54-3.89l1.33,1.27-.48,0-.24,0-.1,0h0c-.09,0-.07,0-.26,0s-.64,0-1,0c-.68.05-1.4.12-2.14.22A12,12,0,0,0,250.5,323a11.29,11.29,0,0,0-3.41,2.88,6.45,6.45,0,0,0-1.6,3.49,2,2,0,0,0,.28,1.26.71.71,0,0,0,.29.16,3.45,3.45,0,0,0,.79.24,11.45,11.45,0,0,0,3.81-.08,24.87,24.87,0,0,0,4.05-1.14C256.05,329.39,257.53,329,259.26,328.53Zm.26.14a35.46,35.46,0,0,1-3.66,2.9,20.22,20.22,0,0,1-2.15,1.36,16.51,16.51,0,0,1-2.33,1,9.44,9.44,0,0,1-5.32.21,6.19,6.19,0,0,1-1.36-.56,3.57,3.57,0,0,1-1.42-1.34,4,4,0,0,1-.5-1.7,5.06,5.06,0,0,1,.1-1.51,5.5,5.5,0,0,1,1.26-2.53,12,12,0,0,1,1.9-1.67c1.33-1,2.66-1.77,4-2.57s2.68-1.71,4.14-2.43a11,11,0,0,1,2.34-.85,6.27,6.27,0,0,1,1.32-.17,4.27,4.27,0,0,1,.88.08l.12,0h.08l.1,0,1.32.58v.69a38.77,38.77,0,0,1-.17,4.47c-.06.72-.16,1.42-.26,2.1S259.69,328.08,259.52,328.67Z"/><path class="cls-6" d="M329.12,303.88a7.3,7.3,0,0,1-2.95-.31c-.83-.28-1.65-.59-2.46-.92s-1.48-.63-2.22-.92a5.36,5.36,0,0,0-2.46-.31,8.75,8.75,0,0,0-4.36,1.35,15.18,15.18,0,0,0-3.45,3.08,20.42,20.42,0,0,0-2.64,4.12,26.26,26.26,0,0,0-1.72,4.49,27,27,0,0,0-.56,4.49q-.18,3-.18,6.45t-.12,6.77a40.84,40.84,0,0,1-.25,5,40.09,40.09,0,0,1-.61,4.61,22.38,22.38,0,0,1-1.54,5,12,12,0,0,1-2.77,3.94,6.27,6.27,0,0,1-4.43,1.6,5.66,5.66,0,0,1-3.62-1.23,9.92,9.92,0,0,1-2.59-3.26,22.37,22.37,0,0,1-1.72-4.74,47.76,47.76,0,0,1-1-5.53c-.25-2-.43-3.94-.56-5.91s-.2-3.83-.24-5.59-.05-3.38,0-4.86.06-2.66.06-3.57c-.08-2.86-.23-5.75-.43-8.67s-.31-5.79-.31-8.67q0-2.7.25-6a21.46,21.46,0,0,1,1.35-6.21,12.49,12.49,0,0,1,3.26-4.86,8.5,8.5,0,0,1,6-2,5.09,5.09,0,0,1,3.57,1.35,10.77,10.77,0,0,1,2.4,3.33,20.35,20.35,0,0,1,1.41,4.18,27.94,27.94,0,0,1,.62,4.06,30.58,30.58,0,0,1,6.64-7.81A15.72,15.72,0,0,1,321,283.1a21.68,21.68,0,0,1,5.84.55,16.89,16.89,0,0,1,5.29,2.21,12.75,12.75,0,0,1,3.94,4,11.65,11.65,0,0,1,1.66,5.78,6.74,6.74,0,0,1-2.34,6A10.21,10.21,0,0,1,329.12,303.88Z"/><path class="cls-5" d="M329.13,304a7.32,7.32,0,0,1-3.28-.39c-1-.39-2.07-.74-3.07-1.16l-1.51-.59a5,5,0,0,0-1.54-.23,9.54,9.54,0,0,0-3.1.55,9.18,9.18,0,0,0-2.67,1.62,14.77,14.77,0,0,0-2.19,2.28,20.61,20.61,0,0,0-3,5.53,22.07,22.07,0,0,0-.93,3,21,21,0,0,0-.32,3.07c-.11,2.12,0,4.32-.07,6.47l-.07,6.51a61.49,61.49,0,0,1-.31,6.69v-.09a37.61,37.61,0,0,1-.52,3.75,23.58,23.58,0,0,1-.93,3.7,20.22,20.22,0,0,1-1.57,3.54,12.71,12.71,0,0,1-2.49,3.08,6.81,6.81,0,0,1-3.75,1.71,7.3,7.3,0,0,1-4-.51,8,8,0,0,1-3-2.59,14.83,14.83,0,0,1-1.77-3.36,38,38,0,0,1-1.8-7.19c-.21-1.22-.32-2.44-.43-3.66l-.36-3.65c-.1-1.22-.15-2.44-.23-3.66s-.15-2.44-.16-3.67L286,321.1c0-1.21,0-2.41,0-3.62l-.56-7.25c-.18-2.42-.34-4.89-.47-7.34a73.24,73.24,0,0,1,0-7.41,22.38,22.38,0,0,1,1.26-7.56,14.77,14.77,0,0,1,1.81-3.59,11.76,11.76,0,0,1,2.91-3,9.63,9.63,0,0,1,4-1.47,14.17,14.17,0,0,1,2.06-.15,6.94,6.94,0,0,1,2.3.41,6.59,6.59,0,0,1,2,1.2,11.27,11.27,0,0,1,1.47,1.55,14.34,14.34,0,0,1,2,3.58,23.38,23.38,0,0,1,1.11,3.76,28.18,28.18,0,0,1,.55,3.84l-3-.74a35.36,35.36,0,0,1,4.61-5.93,27.09,27.09,0,0,1,2.87-2.54,14,14,0,0,1,3.5-1.89A19.46,19.46,0,0,1,322,281.8a20.84,20.84,0,0,1,7.39,1.56,15.11,15.11,0,0,1,6.08,4.46,12.1,12.1,0,0,1,1.88,3.27,12.46,12.46,0,0,1,.77,3.64,11.49,11.49,0,0,1-.27,3.69,6.45,6.45,0,0,1-1.95,3.14A10.46,10.46,0,0,1,329.13,304Zm0-.3a9.89,9.89,0,0,0,6.44-2.5,5.85,5.85,0,0,0,1.66-3,9.52,9.52,0,0,0,0-3.45,11,11,0,0,0-.94-3.31,11.12,11.12,0,0,0-1.94-2.78,13.47,13.47,0,0,0-5.72-3.49,20.37,20.37,0,0,0-13.19.42,12.62,12.62,0,0,0-2.76,1.61,21.69,21.69,0,0,0-2.46,2.27,31.63,31.63,0,0,0-4.1,5.47l-2.63,4.34-.35-5.08a25.14,25.14,0,0,0-.48-3.39,19.61,19.61,0,0,0-.95-3.25,11.09,11.09,0,0,0-1.51-2.81,7.31,7.31,0,0,0-1-1.12,3.39,3.39,0,0,0-1.06-.67,4,4,0,0,0-1.28-.25,12.1,12.1,0,0,0-1.59.08,6.68,6.68,0,0,0-2.82.94,8.89,8.89,0,0,0-2.18,2.19,11.67,11.67,0,0,0-1.53,2.88,21.64,21.64,0,0,0-1.31,6.76,69.29,69.29,0,0,0-.24,7.21l.08,7.27.17,7.34c0,1.23-.1,2.46-.15,3.69l-.09,3.63c-.05,1.21,0,2.42.05,3.64s0,2.43.14,3.63l.32,3.63.16,1.81c.08.59.17,1.19.27,1.79A31.83,31.83,0,0,0,290,346.2a12.82,12.82,0,0,0,1.75,3,6.51,6.51,0,0,0,2.59,2,5.76,5.76,0,0,0,3.17.2,5.05,5.05,0,0,0,2.71-1.44,13,13,0,0,0,3.13-5.92,36.49,36.49,0,0,0,1.05-6.92V337a62.32,62.32,0,0,0,.23-6.35c.06-2.19.12-4.37.2-6.57l.18-3.29c.06-1.1.09-2.19.24-3.3a22.62,22.62,0,0,1,.64-3.39,25.64,25.64,0,0,1,1.25-3.16,21.89,21.89,0,0,1,3.7-5.62,16.82,16.82,0,0,1,2.52-2.25,10.12,10.12,0,0,1,3-1.55,11.47,11.47,0,0,1,3.34-.42,5.39,5.39,0,0,1,1.67.33l1.51.66C325,302.89,326.92,304,329.11,303.73Z"/><path class="cls-6" d="M391.84,332.54c0,1.47-.06,3.4-.19,5.78a35.55,35.55,0,0,1-1,6.94,16.43,16.43,0,0,1-2.71,5.85,6.08,6.08,0,0,1-5.16,2.46,8.6,8.6,0,0,1-7-3,10.63,10.63,0,0,1-2.34-7.37,30.43,30.43,0,0,1-8.92,5.41,27.4,27.4,0,0,1-10.14,2,14.08,14.08,0,0,1-6.77-1.72,20.87,20.87,0,0,1-5.65-4.43,22.29,22.29,0,0,1-3.94-6.08,16.74,16.74,0,0,1-1.47-6.71,15.87,15.87,0,0,1,3.62-10.33,33.42,33.42,0,0,1,8.92-7.56,52.27,52.27,0,0,1,11.25-5,65.48,65.48,0,0,1,10.64-2.46,9.29,9.29,0,0,1,.06-1.11,9,9,0,0,0,.06-1.1A8.85,8.85,0,0,0,369,298a7.49,7.49,0,0,0-5.9-2.34,12.26,12.26,0,0,0-5.29,1.05,33.76,33.76,0,0,0-4.18,2.33q-2,1.29-3.93,2.34a9.29,9.29,0,0,1-4.43,1.05,6.62,6.62,0,0,1-4.61-1.73,5.65,5.65,0,0,1-1.91-4.42,12.29,12.29,0,0,1,2.4-7.38,21.24,21.24,0,0,1,6-5.6,33.41,33.41,0,0,1,7.87-3.57,27.06,27.06,0,0,1,7.81-1.29,28.52,28.52,0,0,1,6.65.8,25,25,0,0,1,6.27,2.46,24.6,24.6,0,0,1,5.35,4.06,19.19,19.19,0,0,1,3.87,5.6,53.35,53.35,0,0,1,3.57,9.65,87.42,87.42,0,0,1,2.09,10.45q.74,5.35,1,10.7C391.75,325.71,391.84,329.17,391.84,332.54Zm-19.68-3.94-.37-8.36a2.05,2.05,0,0,1-.49-.06,2.14,2.14,0,0,0-.49-.07,13.25,13.25,0,0,0-4,.8,21,21,0,0,0-4.61,2.22,17.8,17.8,0,0,0-3.75,3.13,5.32,5.32,0,0,0-1.54,3.57,2.37,2.37,0,0,0,1.23,2.34,6.24,6.24,0,0,0,2.83.61,13.93,13.93,0,0,0,5.78-1.41C368.8,330.43,370.6,329.5,372.16,328.6Z"/><path class="cls-5" d="M392,332.54a78.49,78.49,0,0,1-.62,10.26,25.38,25.38,0,0,1-1.26,5A16.46,16.46,0,0,1,389,350.2a9.85,9.85,0,0,1-1.59,2.16,7,7,0,0,1-5.09,1.83,10.07,10.07,0,0,1-5.29-1.36,9.81,9.81,0,0,1-3.64-4.2,12.84,12.84,0,0,1-1.12-5.43l1.86.88a30.64,30.64,0,0,1-10.6,6.32,27,27,0,0,1-6.09,1.38,27.36,27.36,0,0,1-3.13.17,15.49,15.49,0,0,1-3.25-.36,17,17,0,0,1-5.83-2.64,21.82,21.82,0,0,1-4.62-4.27,23.18,23.18,0,0,1-3.26-5.31,18.49,18.49,0,0,1-1.59-6,17.62,17.62,0,0,1,.62-6.18,16.74,16.74,0,0,1,2.8-5.5,34.41,34.41,0,0,1,9.09-7.93,54.93,54.93,0,0,1,10.9-5.1,72.1,72.1,0,0,1,11.67-3l-.63.71.08-2.28a11.28,11.28,0,0,0-.26-2.12,7.15,7.15,0,0,0-1.93-3.55c-1.89-1.9-5-1.95-7.73-1.37a9,9,0,0,0-1.94.64c-.63.3-1.31.66-1.94,1s-1.28.75-1.89,1.15-1.32.82-2,1.23l-2,1.23a9.56,9.56,0,0,1-2.36,1,10.76,10.76,0,0,1-2.57.41,9.1,9.1,0,0,1-2.67-.24,7.65,7.65,0,0,1-2.52-1.14,7.56,7.56,0,0,1-2-2,7,7,0,0,1-1.1-2.64,8.07,8.07,0,0,1-.14-1.38c0-.44,0-.85,0-1.28a13.5,13.5,0,0,1,1.3-4.94,14.24,14.24,0,0,1,1.29-2.2,21.93,21.93,0,0,1,1.54-1.92,25.16,25.16,0,0,1,7.8-5.77,35.55,35.55,0,0,1,9.1-3,23.22,23.22,0,0,1,4.87-.41,29.82,29.82,0,0,1,4.81.49,25.6,25.6,0,0,1,12.91,6.34,20.57,20.57,0,0,1,3.22,3.67,24.16,24.16,0,0,1,2.25,4.25C387,293,387.55,294.5,388,296a68.37,68.37,0,0,1,2.19,9c.55,3,.92,6.09,1.17,9.15C392,320.29,391.84,326.42,392,332.54Zm-.3,0-.3-9.17a83.89,83.89,0,0,0-.87-9.1,78.22,78.22,0,0,0-4.43-17.59c-.56-1.39-1.18-2.75-1.85-4.08a21.13,21.13,0,0,0-2.23-3.74,22,22,0,0,0-6.47-5.58,23.84,23.84,0,0,0-8.08-2.89,27,27,0,0,0-4.3-.38,23.62,23.62,0,0,0-4.26.4,32.14,32.14,0,0,0-8.25,2.74,23,23,0,0,0-6.95,5,19.27,19.27,0,0,0-1.35,1.64,11.46,11.46,0,0,0-1.06,1.73,10.56,10.56,0,0,0-1.09,3.86,5.1,5.1,0,0,0,.65,3.48,4.83,4.83,0,0,0,1.25,1.26,5.06,5.06,0,0,0,1.61.76,7.94,7.94,0,0,0,3.84-.07,6.53,6.53,0,0,0,1.84-.76l1.94-1.11c.65-.38,1.28-.71,1.95-1.14s1.36-.81,2.06-1.18,1.39-.7,2.15-1a12.55,12.55,0,0,1,2.43-.73,15,15,0,0,1,4.95-.05,8,8,0,0,1,4.53,2.35,8.83,8.83,0,0,1,2.22,4.5,12.56,12.56,0,0,1,.2,2.44l-.17,2.29,0,.64-.58.07a56.34,56.34,0,0,0-22.27,7.44,30.92,30.92,0,0,0-8.67,7.83,15.19,15.19,0,0,0-2.68,10.84,16.92,16.92,0,0,0,1.72,5.38,20.66,20.66,0,0,0,3.19,4.69,20.35,20.35,0,0,0,4.29,3.63,14.2,14.2,0,0,0,5,2.14,12.8,12.8,0,0,0,2.69.28,24.42,24.42,0,0,0,2.83-.17,28.55,28.55,0,0,0,5.54-1.21,30.77,30.77,0,0,0,10-5.51l2-1.68-.16,2.56a10.66,10.66,0,0,0,.64,4.6,8.09,8.09,0,0,0,2.75,3.63,8.51,8.51,0,0,0,4.46,1.42,5.85,5.85,0,0,0,4.4-1.27,8.71,8.71,0,0,0,1.56-1.87,14.55,14.55,0,0,0,1.19-2.2,24.24,24.24,0,0,0,1.41-4.86C391.63,339.39,391.51,335.94,391.69,332.54Z"/><path class="cls-5" d="M372,328.53c-.23-.8-.41-1.54-.58-2.26s-.33-1.41-.45-2.08a32.4,32.4,0,0,1-.54-3.89l1.33,1.27-.47,0-.24,0-.11,0h0c-.09,0-.07,0-.27,0s-.64,0-1,0c-.67.05-1.4.12-2.13.22a12,12,0,0,0-4.29,1.27,11.17,11.17,0,0,0-3.41,2.88,6.31,6.31,0,0,0-1.6,3.49,2,2,0,0,0,.27,1.26.88.88,0,0,0,.29.16,3.69,3.69,0,0,0,.8.24,11.39,11.39,0,0,0,3.8-.08,24.59,24.59,0,0,0,4.05-1.14C368.82,329.39,370.3,329,372,328.53Zm.26.14a34.41,34.41,0,0,1-3.66,2.9,19.26,19.26,0,0,1-2.15,1.36,16,16,0,0,1-2.33,1,9.44,9.44,0,0,1-5.32.21,6.39,6.39,0,0,1-1.36-.56,3.49,3.49,0,0,1-1.41-1.34,4,4,0,0,1-.51-1.7,5.41,5.41,0,0,1,.1-1.51,5.52,5.52,0,0,1,1.27-2.53,11.21,11.21,0,0,1,1.9-1.67c1.32-1,2.65-1.77,4-2.57s2.67-1.71,4.14-2.43a11,11,0,0,1,2.34-.85,6.18,6.18,0,0,1,1.31-.17,4.27,4.27,0,0,1,.88.08l.12,0h.09a.16.16,0,0,1,.09,0l1.32.58v.69a38.77,38.77,0,0,1-.17,4.47c-.05.72-.16,1.42-.26,2.1A17.09,17.09,0,0,1,372.29,328.67Z"/><path class="cls-7" d="M483.21,287.28a23.39,23.39,0,0,1-.55,4.92,17.2,17.2,0,0,1-1.78,4.79,11.53,11.53,0,0,1-3.2,3.69,7.73,7.73,0,0,1-4.8,1.48q-4.31,0-6.39-1.54a8.18,8.18,0,0,1-2.95-3.87,15.18,15.18,0,0,1-.93-5q-.06-2.65-.18-5a11.16,11.16,0,0,0-.8-3.88,2.82,2.82,0,0,0-2.89-1.53,6,6,0,0,0-4.3,1.78,15.75,15.75,0,0,0-3.2,4.61,35.18,35.18,0,0,0-2.28,6.4q-.91,3.56-1.47,7.07c-.37,2.33-.64,4.55-.8,6.64s-.25,3.79-.25,5.1q0,2.58.19,6.15a28.87,28.87,0,0,0,1.16,6.83,14.91,14.91,0,0,0,3,5.53,7,7,0,0,0,5.65,2.28,18.81,18.81,0,0,0,4.8-.62c1.56-.41,3.11-.88,4.67-1.41s3.14-1,4.74-1.42a19.42,19.42,0,0,1,4.85-.61,5.79,5.79,0,0,1,4.68,2.27,7.91,7.91,0,0,1,1.84,5.11,12.17,12.17,0,0,1-2.46,7.31,26.34,26.34,0,0,1-6.08,6,31.57,31.57,0,0,1-7.87,4.06,23.78,23.78,0,0,1-7.69,1.47q-8.85,0-15-4a31.56,31.56,0,0,1-10-10.33,45.77,45.77,0,0,1-5.47-14.15,74.35,74.35,0,0,1-1.66-15.55,72.71,72.71,0,0,1,1-11.32,85.23,85.23,0,0,1,3-12.36,74.3,74.3,0,0,1,5-12A47.44,47.44,0,0,1,441.77,266a33.83,33.83,0,0,1,9.16-7.13,23.67,23.67,0,0,1,11.25-2.71,16.46,16.46,0,0,1,10.09,3,22.82,22.82,0,0,1,6.52,7.62,34.57,34.57,0,0,1,3.44,10.09A59.34,59.34,0,0,1,483.21,287.28Z"/><path class="cls-5" d="M483.36,287.28a20.14,20.14,0,0,1-2.76,10.57,10.67,10.67,0,0,1-4,3.83,11,11,0,0,1-5.53.79,12.82,12.82,0,0,1-2.79-.47,7.17,7.17,0,0,1-2.58-1.35,8.79,8.79,0,0,1-2-2.16,11,11,0,0,1-1.17-2.66A15.64,15.64,0,0,1,462,293c-.11-1-.14-1.88-.2-2.78l-.17-2.72a15,15,0,0,0-.33-2.59,7.34,7.34,0,0,0-.35-1.18,3.22,3.22,0,0,0-.23-.52,1.24,1.24,0,0,0-.23-.32,2.38,2.38,0,0,0-1.77-.46,5.24,5.24,0,0,0-3.9,2.05,16,16,0,0,0-2.63,4.34,34.08,34.08,0,0,0-1.73,5,70.17,70.17,0,0,0-2,10.58c-.2,1.79-.49,3.57-.55,5.36l-.16,2.68c-.06.9,0,1.81,0,2.71.06,1.79,0,3.65.13,5.38a27.59,27.59,0,0,0,.93,5.18,14.15,14.15,0,0,0,2.19,4.6,5.86,5.86,0,0,0,1.7,1.67,6.09,6.09,0,0,0,2.25.83,15.82,15.82,0,0,0,5.17-.16c.86-.15,1.73-.44,2.6-.67l2.62-.74,5.32-1.5a18.5,18.5,0,0,1,5.62-.48,6,6,0,0,1,2.76,1,7.86,7.86,0,0,1,2,2.12,8.7,8.7,0,0,1,1.38,5.5,12.6,12.6,0,0,1-1.62,5.41,22.93,22.93,0,0,1-3.45,4.42,28.67,28.67,0,0,1-4.3,3.55A32.07,32.07,0,0,1,462.93,356a20.73,20.73,0,0,1-5.61.75,30,30,0,0,1-11.09-1.91,28.71,28.71,0,0,1-9.42-6.3,35.14,35.14,0,0,1-6.63-9.17,46.4,46.4,0,0,1-3.88-10.57,73.45,73.45,0,0,1-1.85-22.23,84.23,84.23,0,0,1,4.75-21.78,74.74,74.74,0,0,1,4.63-10.19,47.41,47.41,0,0,1,6.55-9.19,34.51,34.51,0,0,1,8.9-7,24,24,0,0,1,11-3.09,19.25,19.25,0,0,1,11,2.44,22.21,22.21,0,0,1,7.52,8.22,35.44,35.44,0,0,1,3.58,10.43A60.84,60.84,0,0,1,483.36,287.28Zm-.3,0c-.15-7.23-1.23-14.74-5-20.95a21.37,21.37,0,0,0-7.49-7.45,17.48,17.48,0,0,0-10.19-1.66c-7.07.58-13.2,4.87-17.84,10.09s-7.9,11.81-10.33,18.54a85.92,85.92,0,0,0-4.63,20.95A70.57,70.57,0,0,0,429,328.13a46.07,46.07,0,0,0,3.5,10,32.64,32.64,0,0,0,6,8.67,29.14,29.14,0,0,0,4,3.45,22.53,22.53,0,0,0,4.52,2.64,28,28,0,0,0,10.33,2.15,24.78,24.78,0,0,0,10.34-2.17A28.06,28.06,0,0,0,476.6,347a21.4,21.4,0,0,0,3.34-4.16,11.43,11.43,0,0,0,1.55-5,7.31,7.31,0,0,0-1.23-4.93,5.61,5.61,0,0,0-4.08-2.7,16.76,16.76,0,0,0-5.25.56l-5.19,1.62-2.63.85c-.89.28-1.74.6-2.68.81a17.1,17.1,0,0,1-5.73.39,7.45,7.45,0,0,1-5.18-3,16.32,16.32,0,0,1-2.71-5.15,28.48,28.48,0,0,1-1.21-5.55c-.13-.95-.18-1.89-.22-2.81l-.12-2.76c0-.93-.12-1.85-.07-2.78l.11-2.79a48.9,48.9,0,0,1,.5-5.55,62.29,62.29,0,0,1,2.07-11,37.59,37.59,0,0,1,1.95-5.34,18.13,18.13,0,0,1,3.2-4.88,8.45,8.45,0,0,1,2.49-1.92,6.83,6.83,0,0,1,3.15-.7,5.94,5.94,0,0,1,1.67.25,3.49,3.49,0,0,1,1.6,1,3.58,3.58,0,0,1,.54.81c.13.29.2.5.29.75a11.19,11.19,0,0,1,.35,1.47,16.66,16.66,0,0,1,.22,2.86l0,2.76c0,.92,0,1.84.05,2.69a14,14,0,0,0,.41,2.58,8,8,0,0,0,2.53,4.37,8.2,8.2,0,0,0,4.76,1.85,15,15,0,0,0,2.67.1,7.24,7.24,0,0,0,2.55-.63,10.14,10.14,0,0,0,3.92-3.53A19.52,19.52,0,0,0,483.06,287.28Z"/><path class="cls-7" d="M530.81,303.88a7.38,7.38,0,0,1-3-.31c-.82-.28-1.64-.59-2.45-.92s-1.48-.63-2.22-.92a5.36,5.36,0,0,0-2.46-.31,8.75,8.75,0,0,0-4.36,1.35,15.18,15.18,0,0,0-3.45,3.08,20.42,20.42,0,0,0-2.64,4.12,26.26,26.26,0,0,0-1.72,4.49A27,27,0,0,0,508,319q-.18,3-.18,6.45t-.12,6.77a40.84,40.84,0,0,1-.25,5,40.09,40.09,0,0,1-.61,4.61,22.38,22.38,0,0,1-1.54,5,12,12,0,0,1-2.77,3.94,6.27,6.27,0,0,1-4.43,1.6,5.66,5.66,0,0,1-3.62-1.23,9.92,9.92,0,0,1-2.59-3.26,22.37,22.37,0,0,1-1.72-4.74,47.76,47.76,0,0,1-1-5.53c-.25-2-.43-3.94-.56-5.91s-.2-3.83-.24-5.59-.05-3.38,0-4.86.06-2.66.06-3.57c-.08-2.86-.23-5.75-.43-8.67s-.31-5.79-.31-8.67q0-2.7.25-6a21.46,21.46,0,0,1,1.35-6.21,12.49,12.49,0,0,1,3.26-4.86,8.5,8.5,0,0,1,6-2A5.1,5.1,0,0,1,502,282.6a10.77,10.77,0,0,1,2.4,3.33,20.35,20.35,0,0,1,1.41,4.18,27.94,27.94,0,0,1,.62,4.06,30.58,30.58,0,0,1,6.64-7.81,15.72,15.72,0,0,1,9.59-3.26,21.68,21.68,0,0,1,5.84.55,16.89,16.89,0,0,1,5.29,2.21,12.62,12.62,0,0,1,3.93,4,11.55,11.55,0,0,1,1.67,5.78,6.74,6.74,0,0,1-2.34,6A10.21,10.21,0,0,1,530.81,303.88Z"/><path class="cls-5" d="M530.81,304a8,8,0,0,1-2.67-.19c-.86-.28-1.67-.61-2.51-.9l-2.46-1a5.12,5.12,0,0,0-2.49-.26,8.26,8.26,0,0,0-4.67,1.83,15.34,15.34,0,0,0-3.41,3.78,22.21,22.21,0,0,0-2.25,4.59,23.54,23.54,0,0,0-.76,2.43,14.21,14.21,0,0,0-.34,2.44c-.12,1.7-.11,3.47-.11,5.21l-.05,5.26c0,1.76,0,3.5-.06,5.28,0,.89,0,1.79-.08,2.7s-.18,1.87-.25,2.68a39.76,39.76,0,0,1-.95,5.39,21,21,0,0,1-2.12,5.17,13.35,13.35,0,0,1-1.74,2.28,7.61,7.61,0,0,1-2.41,1.77,7.41,7.41,0,0,1-2.9.62,6.94,6.94,0,0,1-2.9-.5,8.72,8.72,0,0,1-4-4,21.64,21.64,0,0,1-1.89-5.08,49,49,0,0,1-1-5.24c-.22-1.76-.36-3.52-.54-5.29-.3-3.53-.48-7.06-.54-10.61-.07-1.79,0-3.51-.09-5.27l-.4-5.24c-.29-3.47-.5-7.07-.69-10.61a23.94,23.94,0,0,1,0-2.68l.06-2.68a24.74,24.74,0,0,1,.54-5.49,18.21,18.21,0,0,1,2-5.34,13.47,13.47,0,0,1,1.77-2.36,9.18,9.18,0,0,1,2.47-1.92,10.1,10.1,0,0,1,2.94-.95,12.79,12.79,0,0,1,1.49-.16c.24,0,.48,0,.73,0a5.78,5.78,0,0,1,.83,0,6.46,6.46,0,0,1,3.19,1.22,8.5,8.5,0,0,1,1.2,1.07,12.14,12.14,0,0,1,1,1.17,17.42,17.42,0,0,1,2.39,5.3,29.51,29.51,0,0,1,1,5.53l-3-.74a35.36,35.36,0,0,1,4.61-5.93,27.09,27.09,0,0,1,2.87-2.54,14.07,14.07,0,0,1,3.49-1.89,19.53,19.53,0,0,1,7.59-1.16,20.84,20.84,0,0,1,7.39,1.56,15.11,15.11,0,0,1,6.08,4.46,12,12,0,0,1,2.65,6.92,11.45,11.45,0,0,1-.27,3.68,6.4,6.4,0,0,1-2,3.14A10.42,10.42,0,0,1,530.81,304Zm0-.3a9.89,9.89,0,0,0,6.44-2.5,5.85,5.85,0,0,0,1.66-3,9.74,9.74,0,0,0,0-3.45,11,11,0,0,0-.94-3.31,11.12,11.12,0,0,0-1.94-2.78,13.47,13.47,0,0,0-5.72-3.49,20.41,20.41,0,0,0-13.2.42,12.79,12.79,0,0,0-2.75,1.61,23.71,23.71,0,0,0-2.46,2.27,32.2,32.2,0,0,0-4.11,5.47l-2.56,4.24-.41-5c-.26-3.22-1.06-6.72-2.75-9.19a9.4,9.4,0,0,0-.69-.87,6.82,6.82,0,0,0-.75-.71,3.43,3.43,0,0,0-1.68-.68l-.49,0h-.59a8.48,8.48,0,0,0-1.14.1,7.13,7.13,0,0,0-2.09.61,8.59,8.59,0,0,0-3.14,3.12,15.28,15.28,0,0,0-1.79,4.48,24.51,24.51,0,0,0-.65,5l-.15,2.6a22.77,22.77,0,0,0-.09,2.61c.09,3.5,0,7,.15,10.53l.12,5.32c0,1.76-.15,3.57-.17,5.31s-.13,3.5,0,5.26,0,3.52.24,5.26.27,3.5.5,5.23a49.68,49.68,0,0,0,1.07,5.13,19.55,19.55,0,0,0,1.95,4.74,7.26,7.26,0,0,0,3.53,3.18,6.2,6.2,0,0,0,4.5-.37,6,6,0,0,0,1.73-1.47,11.32,11.32,0,0,0,1.35-2,26.65,26.65,0,0,0,2.3-9.74c.05-.95.17-1.74.2-2.6s0-1.71,0-2.58c0-1.75.07-3.53.12-5.29s.11-3.55.22-5.33a48.61,48.61,0,0,1,.43-5.34,16,16,0,0,1,.62-2.76,24.41,24.41,0,0,1,1-2.54,23.18,23.18,0,0,1,2.8-4.69,17.12,17.12,0,0,1,4-3.73,9.46,9.46,0,0,1,5.14-1.69,5.83,5.83,0,0,1,2.7.41c.81.36,1.61.73,2.43,1.05s1.64.64,2.46.92A7.62,7.62,0,0,0,530.8,303.73Z"/><path class="cls-7" d="M562.54,305.85v3.63c0,1.27,0,2.48-.13,3.62-.08,1.4-.12,3.26-.12,5.6s-.08,4.86-.25,7.56-.43,5.46-.8,8.24a36.64,36.64,0,0,1-1.78,7.63,15.79,15.79,0,0,1-3.26,5.59,7.1,7.1,0,0,1-5.1,2.28,4.55,4.55,0,0,1-3.94-1.85,16.05,16.05,0,0,1-2.64-5.1,36.83,36.83,0,0,1-1.54-7c-.33-2.58-.57-5.08-.74-7.5s-.24-4.65-.24-6.7V311.69q0-3.63.24-7.81c.17-2.79.47-5.61.93-8.48a42.63,42.63,0,0,1,2-7.88,16.46,16.46,0,0,1,3.39-5.78,7,7,0,0,1,5.28-2.21,5.45,5.45,0,0,1,5.05,3.32,29.15,29.15,0,0,1,2.58,7.75,54.12,54.12,0,0,1,1,8.79C562.49,302.3,562.54,304.46,562.54,305.85Zm-1-41.82a5.37,5.37,0,0,1-.92,3.08,9.77,9.77,0,0,1-2.4,2.4,11.56,11.56,0,0,1-3.2,1.6,10.44,10.44,0,0,1-3.19.55,7.6,7.6,0,0,1-4.31-1.23,4.25,4.25,0,0,1-1.84-3.81,5.79,5.79,0,0,1,.92-3.26,8.3,8.3,0,0,1,2.27-2.34,10.85,10.85,0,0,1,3.08-1.41,12,12,0,0,1,3.32-.49,8.58,8.58,0,0,1,4.3,1.1A4,4,0,0,1,561.55,264Z"/><path class="cls-5" d="M562.69,305.85c.07,3.27-.07,6.6,0,9.87l.27,9.89c0,1.66-.09,3.31-.19,5s-.17,3.31-.4,5a31.86,31.86,0,0,1-1,5,22.56,22.56,0,0,1-2,4.81,14.69,14.69,0,0,1-1.52,2.18,10.63,10.63,0,0,1-2,1.88,8.18,8.18,0,0,1-5.29,1.41,5.08,5.08,0,0,1-2.68-1,7.31,7.31,0,0,1-1.77-2,18.64,18.64,0,0,1-2.08-4.63,46.8,46.8,0,0,1-1.84-9.76c-.18-1.64-.4-3.28-.61-4.92l-.36-4.95c-.16-1.66-.19-3.3-.27-5s-.12-3.28-.16-4.92c-.11-3.28,0-6.63,0-9.94a86.48,86.48,0,0,1,1-10,39.36,39.36,0,0,1,1.17-5,24.78,24.78,0,0,1,2-4.86,18.61,18.61,0,0,1,1.52-2.26c.3-.35.6-.69.93-1a8.74,8.74,0,0,1,1.12-1,8.47,8.47,0,0,1,5.63-1.54,6.61,6.61,0,0,1,3,.92,7,7,0,0,1,2.13,2.13,10.08,10.08,0,0,1,.68,1.24c.18.39.34.79.49,1.2a23.91,23.91,0,0,1,.79,2.44,47.07,47.07,0,0,1,1.36,9.93c.07,1.66.1,3.31,0,5Zm-.3,0a94.09,94.09,0,0,0-.59-9.81,41.3,41.3,0,0,0-2.42-9.38,23.16,23.16,0,0,0-1-2.14l-.56-1a8.42,8.42,0,0,0-.59-.88,4,4,0,0,0-3.17-1.63,5.85,5.85,0,0,0-3.66,1.14,6.22,6.22,0,0,0-.72.65c-.23.26-.47.54-.69.82a14.27,14.27,0,0,0-1.18,1.86,33.47,33.47,0,0,0-2.87,8.86,82.76,82.76,0,0,0-1.28,9.59l-.25,4.87c-.1,1.62-.2,3.25-.22,4.9,0,3.27-.31,6.58-.31,9.84v4.89c.09,1.64.21,3.27.34,4.9a35.47,35.47,0,0,0,1.75,9.57,16.12,16.12,0,0,0,2.17,4.23,4.28,4.28,0,0,0,3.51,2.07,6.37,6.37,0,0,0,4-1.43,7.82,7.82,0,0,0,1.44-1.62,15.13,15.13,0,0,0,1.15-1.95,34.68,34.68,0,0,0,2.62-9c.39-3.19.87-6.43,1.31-9.67.27-3.25.64-6.5.84-9.81l.32-4.92C562.4,309.14,562.35,307.49,562.39,305.85Z"/><path class="cls-5" d="M561.7,264a8.38,8.38,0,0,1-.5,2.89,10.45,10.45,0,0,1-1.52,2.67,8.19,8.19,0,0,1-5.3,3,10.24,10.24,0,0,1-6-1.14,6.7,6.7,0,0,1-2.41-1.88,6.4,6.4,0,0,1-1.1-3,6.48,6.48,0,0,1,.36-3.26,8.26,8.26,0,0,1,1.85-2.71,11,11,0,0,1,8.87-3,7.5,7.5,0,0,1,3,1.14,9,9,0,0,1,1.26,1,4.7,4.7,0,0,1,1,1.32A6.66,6.66,0,0,1,561.7,264Zm-.3,0a3.44,3.44,0,0,0-.9-2.44,3.79,3.79,0,0,0-2.28-.92,13.83,13.83,0,0,0-4.85.24,11.14,11.14,0,0,0-4.39,1.84,8,8,0,0,0-1.6,1.69,5.14,5.14,0,0,0-.87,2.17,3.65,3.65,0,0,0,.31,2.4,3.54,3.54,0,0,0,1.95,1.55,5.36,5.36,0,0,0,2.57.26,11.21,11.21,0,0,0,2.45-.66,41,41,0,0,0,4.64-2,7.1,7.1,0,0,0,2.1-1.6A3.8,3.8,0,0,0,561.4,264Z"/><path class="cls-8" d="M623.54,332.54c0,1.47-.07,3.4-.19,5.78a34.82,34.82,0,0,1-1.05,6.94,16.25,16.25,0,0,1-2.7,5.85,6.09,6.09,0,0,1-5.17,2.46,8.62,8.62,0,0,1-7-3,10.57,10.57,0,0,1-2.33-7.37,30.56,30.56,0,0,1-8.92,5.41,27.4,27.4,0,0,1-10.14,2,14,14,0,0,1-6.77-1.72,20.91,20.91,0,0,1-5.66-4.43,22,22,0,0,1-3.93-6.08,16.59,16.59,0,0,1-1.48-6.71,15.83,15.83,0,0,1,3.63-10.33,33.42,33.42,0,0,1,8.92-7.56,52.06,52.06,0,0,1,11.25-5,65.48,65.48,0,0,1,10.64-2.46,9.29,9.29,0,0,1,.06-1.11,9,9,0,0,0,.06-1.1,8.9,8.9,0,0,0-2.09-6.15,7.51,7.51,0,0,0-5.9-2.34,12.23,12.23,0,0,0-5.29,1.05,33,33,0,0,0-4.18,2.33q-2,1.29-3.94,2.34a9.26,9.26,0,0,1-4.43,1.05,6.63,6.63,0,0,1-4.61-1.73,5.67,5.67,0,0,1-1.9-4.42,12.35,12.35,0,0,1,2.39-7.38,21.28,21.28,0,0,1,6-5.6,33.23,33.23,0,0,1,7.87-3.57,27,27,0,0,1,7.81-1.29,28.43,28.43,0,0,1,6.64.8,24.51,24.51,0,0,1,11.62,6.52,19.41,19.41,0,0,1,3.88,5.6,53.32,53.32,0,0,1,3.56,9.65,85.49,85.49,0,0,1,2.09,10.45c.5,3.57.82,7.14,1,10.7S623.54,329.17,623.54,332.54Zm-19.68-3.94-.37-8.36a2,2,0,0,1-.49-.06,2.15,2.15,0,0,0-.5-.07,13.25,13.25,0,0,0-4,.8,21,21,0,0,0-4.61,2.22,17.8,17.8,0,0,0-3.75,3.13,5.32,5.32,0,0,0-1.54,3.57,2.37,2.37,0,0,0,1.23,2.34,6.24,6.24,0,0,0,2.83.61,13.93,13.93,0,0,0,5.78-1.41C600.5,330.43,602.3,329.5,603.86,328.6Z"/><path class="cls-5" d="M623.69,332.54a80.27,80.27,0,0,1-.62,10.26,24.9,24.9,0,0,1-1.27,5,15.45,15.45,0,0,1-1.11,2.37,9.25,9.25,0,0,1-1.59,2.16,7,7,0,0,1-5.08,1.83,10,10,0,0,1-5.29-1.36,9.81,9.81,0,0,1-3.64-4.2A12.84,12.84,0,0,1,604,343.2l1.86.88a30.6,30.6,0,0,1-10.61,6.32,26.9,26.9,0,0,1-6.09,1.38A27.23,27.23,0,0,1,586,352a15.46,15.46,0,0,1-3.24-.36,17.12,17.12,0,0,1-5.84-2.64,22,22,0,0,1-4.61-4.27,22.84,22.84,0,0,1-3.26-5.31,18.57,18.57,0,0,1-1.6-6,17.87,17.87,0,0,1,.63-6.18,16.74,16.74,0,0,1,2.8-5.5,34.25,34.25,0,0,1,9.09-7.93,54.93,54.93,0,0,1,10.9-5.1,72.25,72.25,0,0,1,11.66-3l-.62.71.07-2.28a10.51,10.51,0,0,0-.25-2.12,7.09,7.09,0,0,0-1.94-3.55c-1.88-1.9-5-1.95-7.72-1.38a9.62,9.62,0,0,0-1.94.65c-.63.3-1.31.66-2,1s-1.27.74-1.88,1.15-1.32.82-2,1.23l-2,1.23a9.56,9.56,0,0,1-2.36,1,10.76,10.76,0,0,1-2.57.41,9.08,9.08,0,0,1-2.67-.24,7.65,7.65,0,0,1-2.52-1.14,7.56,7.56,0,0,1-2-2,6.81,6.81,0,0,1-1.1-2.64,7.2,7.2,0,0,1-.15-1.38c0-.44,0-.85,0-1.28a13.7,13.7,0,0,1,1.3-4.94,15.14,15.14,0,0,1,1.3-2.2,21.93,21.93,0,0,1,1.54-1.92,25.21,25.21,0,0,1,7.8-5.77,35.48,35.48,0,0,1,9.09-3,23.33,23.33,0,0,1,4.87-.41,30,30,0,0,1,4.82.49,26,26,0,0,1,9,3.42,25.66,25.66,0,0,1,3.87,2.92,20.13,20.13,0,0,1,3.21,3.67,23.52,23.52,0,0,1,2.25,4.25c.62,1.44,1.16,2.91,1.65,4.39a66.79,66.79,0,0,1,2.18,9,91.2,91.2,0,0,1,1.18,9.15C623.65,320.29,623.54,326.42,623.69,332.54Zm-.3,0-.3-9.17a86.47,86.47,0,0,0-.87-9.1,78.76,78.76,0,0,0-4.43-17.59q-.84-2.08-1.86-4.08a21.09,21.09,0,0,0-2.22-3.74,22.13,22.13,0,0,0-6.47-5.58,23.84,23.84,0,0,0-8.08-2.89,27.18,27.18,0,0,0-4.31-.38,23.51,23.51,0,0,0-4.25.4,32.21,32.21,0,0,0-8.26,2.74,23.12,23.12,0,0,0-6.94,5,19.27,19.27,0,0,0-1.35,1.64,11.53,11.53,0,0,0-1.07,1.73,10.75,10.75,0,0,0-1.08,3.86,5.06,5.06,0,0,0,.65,3.48,4.94,4.94,0,0,0,1.24,1.26,5.22,5.22,0,0,0,1.62.76,7.94,7.94,0,0,0,3.84-.07,6.53,6.53,0,0,0,1.84-.76L583,298.9c.66-.38,1.28-.71,2-1.14s1.36-.81,2.06-1.18,1.39-.7,2.15-1a12.55,12.55,0,0,1,2.43-.73,14.89,14.89,0,0,1,4.94-.05,8.06,8.06,0,0,1,4.54,2.35,8.91,8.91,0,0,1,2.22,4.5,13.39,13.39,0,0,1,.2,2.44l-.17,2.29-.05.64-.58.07a56.28,56.28,0,0,0-22.27,7.44,31,31,0,0,0-8.68,7.83,15.18,15.18,0,0,0-2.67,10.84,16.9,16.9,0,0,0,1.71,5.38,21,21,0,0,0,3.19,4.69,20.66,20.66,0,0,0,4.3,3.63,14.39,14.39,0,0,0,5,2.14,12.73,12.73,0,0,0,2.69.28,24.42,24.42,0,0,0,2.83-.17,28.71,28.71,0,0,0,5.54-1.21,30.77,30.77,0,0,0,10-5.51l2-1.68-.16,2.56a10.66,10.66,0,0,0,.64,4.6,8,8,0,0,0,2.75,3.63,8.48,8.48,0,0,0,4.45,1.42,5.86,5.86,0,0,0,4.41-1.27,8.39,8.39,0,0,0,1.55-1.87,14.6,14.6,0,0,0,1.2-2.2,24.24,24.24,0,0,0,1.41-4.86C623.33,339.39,623.2,335.94,623.39,332.54Z"/><path class="cls-5" d="M603.73,328.53c-.23-.8-.41-1.54-.59-2.26s-.32-1.41-.44-2.08a32.4,32.4,0,0,1-.54-3.89l1.33,1.27-.48,0-.23,0-.11,0h0c-.09,0-.07,0-.26,0s-.64,0-1,0c-.68.05-1.4.12-2.14.22A12,12,0,0,0,595,323a11.25,11.25,0,0,0-3.4,2.88,6.31,6.31,0,0,0-1.6,3.49,2,2,0,0,0,.27,1.26.71.71,0,0,0,.29.16,3.45,3.45,0,0,0,.79.24,11.45,11.45,0,0,0,3.81-.08,24.87,24.87,0,0,0,4-1.14C600.52,329.39,602,329,603.73,328.53Zm.26.14a35.46,35.46,0,0,1-3.66,2.9,19.26,19.26,0,0,1-2.15,1.36,16,16,0,0,1-2.33,1,9.44,9.44,0,0,1-5.32.21,6.19,6.19,0,0,1-1.36-.56,3.64,3.64,0,0,1-1.42-1.34,4.11,4.11,0,0,1-.5-1.7,5.41,5.41,0,0,1,.1-1.51,5.6,5.6,0,0,1,1.26-2.53,11.66,11.66,0,0,1,1.91-1.67c1.32-1,2.65-1.77,4-2.57s2.67-1.71,4.14-2.43a11.14,11.14,0,0,1,2.33-.85,6.27,6.27,0,0,1,1.32-.17,4.27,4.27,0,0,1,.88.08l.12,0h.08a.17.17,0,0,1,.1,0l1.32.58v.69a38.77,38.77,0,0,1-.17,4.47c-.06.72-.16,1.42-.26,2.1S604.16,328.08,604,328.67Z"/><path class="cls-8" d="M665.84,353.32a3.79,3.79,0,0,1-3.32-1.91,14.15,14.15,0,0,1-1.84-4.36,28.09,28.09,0,0,1-.8-5c-.13-1.68-.19-3-.19-3.88a63,63,0,0,1,.43-7.38q.43-3.69,1-7.38t1-7.37a63,63,0,0,0,.43-7.38c0-1,0-2.05-.12-3.2a16.81,16.81,0,0,0-.56-3.26,5.66,5.66,0,0,0-1.41-2.52,3.48,3.48,0,0,0-2.58-1c-.74,0-1.56.59-2.46,1.78a26,26,0,0,0-2.52,4.06,35.75,35.75,0,0,0-2,4.55,11.28,11.28,0,0,0-.8,3.38c0,1.8,0,3.63.06,5.47s.06,3.71.06,5.6v7.13c-.08,1.48-.2,3-.37,4.55a41.13,41.13,0,0,1-.73,4.55A24.2,24.2,0,0,1,648,344a13.2,13.2,0,0,1-1.91,3.57,9.9,9.9,0,0,1-2.77,2.52,7.06,7.06,0,0,1-3.81,1,5.53,5.53,0,0,1-4.06-1.6,12,12,0,0,1-2.58-4.12,24.29,24.29,0,0,1-1.41-5.66c-.29-2.09-.49-4.14-.62-6.15s-.16-3.85-.12-5.53.06-3,.06-4v-5.78q0-4.68-.18-9.22t-.19-9.1q0-2.46.06-6.28a34.13,34.13,0,0,1,.93-7.44,16.33,16.33,0,0,1,2.82-6.21,6.82,6.82,0,0,1,5.78-2.58,4.72,4.72,0,0,1,3.08,1.11,11.86,11.86,0,0,1,2.4,2.7,17.36,17.36,0,0,1,1.72,3.45c.45,1.23.8,2.29,1,3.19a25.15,25.15,0,0,1,2.89-3.32,19.76,19.76,0,0,1,8.43-4.79,21.2,21.2,0,0,1,5.9-.74q6.27,0,9.78,3a17.81,17.81,0,0,1,5.16,7.5,34.57,34.57,0,0,1,2,9.66c.25,3.44.37,6.56.37,9.34q0,2.1-.37,6.21c-.24,2.75-.63,5.78-1.16,9.11s-1.26,6.72-2.16,10.2a65.64,65.64,0,0,1-3.19,9.53,24.09,24.09,0,0,1-4.37,7A7.63,7.63,0,0,1,665.84,353.32Z"/><path class="cls-5" d="M665.84,353.47a3.84,3.84,0,0,1-3.07-1.44,12,12,0,0,1-1.65-3,26.58,26.58,0,0,1-1.47-6.64c-.15-2.25-.36-4.51-.3-6.78a63.6,63.6,0,0,1,.46-6.77l1.41-13.42a64,64,0,0,0,.18-6.64l-.19-3.28a15,15,0,0,0-.6-3.05,4.5,4.5,0,0,0-.57-1.21,3,3,0,0,0-.79-.86,2.21,2.21,0,0,0-1-.35c-.55,0-.38-.05-.73.14a8.49,8.49,0,0,0-1.82,2.17c-.58.89-1.13,1.82-1.63,2.78a32.58,32.58,0,0,0-2.42,6,6.55,6.55,0,0,0-.25,1.34v5q0,6.78-.22,13.56a62,62,0,0,1-.9,6.8c-.22,1.14-.38,2.22-.66,3.36a24.14,24.14,0,0,1-1,3.32,12.53,12.53,0,0,1-4.22,5.61,7.31,7.31,0,0,1-3.32,1.39,7.86,7.86,0,0,1-3.57-.22,6.24,6.24,0,0,1-2.93-2.09,12.24,12.24,0,0,1-1.81-3,24.89,24.89,0,0,1-1.75-6.63l-.34-3.38-.18-1.69a16,16,0,0,1-.13-1.69c-.05-2.26-.18-4.56-.14-6.79,0-4.48-.13-9-.32-13.47s-.39-9-.51-13.53c0-2.27-.07-4.47,0-6.81a34.86,34.86,0,0,1,1-6.93,16.88,16.88,0,0,1,3.21-6.56,7.7,7.7,0,0,1,3.39-2.22,8.84,8.84,0,0,1,1.93-.4,8.4,8.4,0,0,1,2,0,6.22,6.22,0,0,1,2.09.66,7,7,0,0,1,.9.59c.28.22.5.41.74.63a14.26,14.26,0,0,1,2.37,2.91,19.18,19.18,0,0,1,1.61,3.28l1.12,3.33L647,287a24.58,24.58,0,0,1,5.06-5.28,20.85,20.85,0,0,1,6.55-3.35,23.3,23.3,0,0,1,7.28-.95,18.7,18.7,0,0,1,7.31,1.46,12.43,12.43,0,0,1,3.26,2.14,18.27,18.27,0,0,1,2.53,2.74,20.82,20.82,0,0,1,3.28,6.58,34.25,34.25,0,0,1,1.43,7c.06.59.1,1.18.14,1.77l0,1.73.08,3.47.06,3.46a11.26,11.26,0,0,1-.07,1.74l-.14,1.74-.3,3.48-.54,3.42c-.37,2.28-.68,4.56-1.11,6.82s-1,4.51-1.57,6.73a74.12,74.12,0,0,1-4.6,13,25.06,25.06,0,0,1-3.8,5.77,9.68,9.68,0,0,1-2.71,2.17A7.23,7.23,0,0,1,665.84,353.47Zm0-.3a7,7,0,0,0,3.22-.82,9.1,9.1,0,0,0,2.59-2.12,22.46,22.46,0,0,0,3.58-5.75,64.9,64.9,0,0,0,3.92-13c.46-2.23.86-4.47,1.17-6.72s.47-4.52.71-6.78l.32-3.38.1-3.38.07-1.68a11.92,11.92,0,0,0,0-1.69l-.21-3.39-.19-3.39-.09-1.7c0-.55-.11-1.1-.18-1.64a36.38,36.38,0,0,0-1.43-6.4,18,18,0,0,0-2.87-5.61,15.92,15.92,0,0,0-2.15-2.27,9.09,9.09,0,0,0-2.48-1.58,15.25,15.25,0,0,0-6-1.18,19.59,19.59,0,0,0-6.28.79,18.22,18.22,0,0,0-5.63,2.8,21.11,21.11,0,0,0-4.47,4.53l-1.76,2.38-.92-2.86-1-3.1a15.73,15.73,0,0,0-1.32-2.78,10.94,10.94,0,0,0-1.84-2.34,5.4,5.4,0,0,0-1-.82,3,3,0,0,0-1.1-.37,6.78,6.78,0,0,0-1.36,0,7.39,7.39,0,0,0-1.37.26,4.9,4.9,0,0,0-2.21,1.4,14.33,14.33,0,0,0-2.79,5.42,32.54,32.54,0,0,0-1.07,6.4c-.12,2.16-.12,4.46-.21,6.69,0,4.49,0,8.94,0,13.48s0,9-.15,13.53c-.1,2.27,0,4.48,0,6.72a11.69,11.69,0,0,0,.09,1.67l.15,1.67.33,3.34a22.55,22.55,0,0,0,1.66,6.39,11.28,11.28,0,0,0,1.7,2.75,5.18,5.18,0,0,0,2.49,1.77,6.93,6.93,0,0,0,3.11.11,6.2,6.2,0,0,0,2.81-1.27,10.93,10.93,0,0,0,3.59-5.19,22.51,22.51,0,0,0,.85-3.15c.21-1.05.34-2.21.5-3.29a60.78,60.78,0,0,0,.59-6.61c0-4.48-.19-9-.31-13.44l-.07-3.39,0-1.72a9.18,9.18,0,0,1,.3-2,34.87,34.87,0,0,1,2.6-6.53,27.7,27.7,0,0,1,1.8-3,10.76,10.76,0,0,1,2.59-2.88,3.41,3.41,0,0,1,1.25-.51,3.89,3.89,0,0,1,1.24,0,4.77,4.77,0,0,1,2.15.81,6.32,6.32,0,0,1,2.28,3.47,17.91,17.91,0,0,1,.58,3.59l.06,3.46a62.44,62.44,0,0,1-.56,6.84L660.94,329a54.51,54.51,0,0,0-.78,13.37,23.86,23.86,0,0,0,1.29,6.55,12,12,0,0,0,1.57,2.91A3.54,3.54,0,0,0,665.84,353.17Z"/><path class="cls-9" d="M728,368a13.41,13.41,0,0,1-1.73,6.65A20.12,20.12,0,0,1,721.8,380a21.69,21.69,0,0,1-6.15,3.69,18.47,18.47,0,0,1-6.77,1.35,30.28,30.28,0,0,1-5-.43,16,16,0,0,1-4.67-1.54,15.18,15.18,0,0,1-3.87-2.83,10.87,10.87,0,0,1-2.59-4.3,3.61,3.61,0,0,1-.36-1.6,4.26,4.26,0,0,1,1.53-3.32,4.88,4.88,0,0,1,3.26-1.35,3.79,3.79,0,0,1,2.64.92c.7.61,1.46,1.29,2.28,2a15,15,0,0,0,3,2,10,10,0,0,0,4.68.92,7.92,7.92,0,0,0,4.67-1.6,5.06,5.06,0,0,0,2.21-4.3,4.08,4.08,0,0,0-1.29-3.08,15.4,15.4,0,0,0-3-2.21c-1.15-.66-2.3-1.29-3.45-1.91a7.21,7.21,0,0,1-2.58-2.15,6.6,6.6,0,0,1-1-3.94v-5.9a17.06,17.06,0,0,1-8.49-4.49,26.52,26.52,0,0,1-5.53-7.93,41.79,41.79,0,0,1-3.08-9.72,53,53,0,0,1-1-9.83,54.06,54.06,0,0,1,.74-8.61,57.69,57.69,0,0,1,2.21-9,46.8,46.8,0,0,1,3.81-8.49,33.17,33.17,0,0,1,5.48-7.13,25.1,25.1,0,0,1,7.13-4.92,21,21,0,0,1,8.92-1.84,14.89,14.89,0,0,1,7.74,2,17,17,0,0,1,5.48,5.17,24.51,24.51,0,0,1,3.25,7.13,28.92,28.92,0,0,1,1.11,7.87q0,1-.06,2.34a7.57,7.57,0,0,1-.43,2.34,10.33,10.33,0,0,1-3.2,4.24,7.78,7.78,0,0,1-5,1.78q-4.18,0-5.78-4.18a8.34,8.34,0,0,1-.31-2.89,24.25,24.25,0,0,0-.12-3.44,7,7,0,0,0-.92-2.89,2.78,2.78,0,0,0-2.59-1.23c-1.47,0-2.87.88-4.18,2.64a28.07,28.07,0,0,0-3.44,6.34,51.59,51.59,0,0,0-2.34,7.44,28.43,28.43,0,0,0-.86,6,37.31,37.31,0,0,0,.31,4.24,27.85,27.85,0,0,0,1.11,5.23,14,14,0,0,0,2.21,4.43,4.37,4.37,0,0,0,3.63,1.84,6.74,6.74,0,0,0,4.06-1.35,35.48,35.48,0,0,0,3.56-3c1.15-1.11,2.3-2.11,3.45-3a6,6,0,0,1,3.81-1.35,5.3,5.3,0,0,1,4.24,2,6.83,6.83,0,0,1,1.66,4.55,13.28,13.28,0,0,1-1.47,6.09,20.68,20.68,0,0,1-3.82,5.22,25,25,0,0,1-5.35,4.06,23,23,0,0,1-6.08,2.46v.74c0,.49,0,1-.07,1.66a3.4,3.4,0,0,1-.43,1.54,31.81,31.81,0,0,1,4.31,2,22.56,22.56,0,0,1,4.3,3.07,18.73,18.73,0,0,1,3.32,3.94A8.23,8.23,0,0,1,728,368Z"/><path class="cls-5" d="M728.1,368a13.59,13.59,0,0,1-1.29,5.88,20.11,20.11,0,0,1-3.43,4.95,22,22,0,0,1-10.3,6.14,19.2,19.2,0,0,1-6.08.58,22.63,22.63,0,0,1-6.06-1,16,16,0,0,1-5.43-3,11.74,11.74,0,0,1-3.61-5.23l.05.12a4.5,4.5,0,0,1-.51-2.2,5.19,5.19,0,0,1,.49-2.16,5.66,5.66,0,0,1,1.32-1.76A6.81,6.81,0,0,1,695,369a5.48,5.48,0,0,1,2.19-.5,5.34,5.34,0,0,1,2.25.44,4.64,4.64,0,0,1,1,.62l.73.62,1.37,1.19a13.8,13.8,0,0,0,2.73,1.93l.37.2.33.15a7,7,0,0,0,.69.24,8.61,8.61,0,0,0,1.56.28,15.07,15.07,0,0,0,1.64.06,6.62,6.62,0,0,0,1.47-.23A7.42,7.42,0,0,0,714,372.6a3.61,3.61,0,0,0,1.24-2.29,3.07,3.07,0,0,0-.52-2.41,8.07,8.07,0,0,0-1.1-1,14.42,14.42,0,0,0-1.35-1c-.94-.57-2-1.17-3.07-1.75a13,13,0,0,1-3.28-2.29,7.88,7.88,0,0,1-.69-.86,5.38,5.38,0,0,1-.55-1,7.42,7.42,0,0,1-.51-2.09,36.83,36.83,0,0,1,0-3.77l.07-3.62.87,1.09a18.46,18.46,0,0,1-7.65-3.75,25.49,25.49,0,0,1-5.32-6.47,42.4,42.4,0,0,1-4.9-15.66,52.72,52.72,0,0,1,.39-16.3,53.57,53.57,0,0,1,5-15.53,32.29,32.29,0,0,1,10.62-12.44,22.06,22.06,0,0,1,7.68-3.28,23.39,23.39,0,0,1,4.17-.49,18,18,0,0,1,4.25.31,14.77,14.77,0,0,1,4.09,1.44,18.73,18.73,0,0,1,3.52,2.47,18,18,0,0,1,2.83,3.26,25.8,25.8,0,0,1,2.08,3.7,30,30,0,0,1,2.31,8.12,28.57,28.57,0,0,1,.27,4.22l0,2.1a9,9,0,0,1-.42,2.34,11.24,11.24,0,0,1-2.44,3.93,10.53,10.53,0,0,1-3.81,2.65,9.47,9.47,0,0,1-4.72.51,6.89,6.89,0,0,1-4.35-2.46,8.91,8.91,0,0,1-1.25-2.08,5.46,5.46,0,0,1-.4-1.24,8.66,8.66,0,0,1-.17-1.2c-.07-.77,0-1.55,0-2.14s0-1.27-.07-1.9a9.11,9.11,0,0,0-.28-1.71,4.22,4.22,0,0,0-.27-.73,3.18,3.18,0,0,0-.32-.57,1.07,1.07,0,0,0-.74-.35,2.35,2.35,0,0,0-1.22.13,5.49,5.49,0,0,0-2.28,2.08,23.17,23.17,0,0,0-2,3.25,44,44,0,0,0-2.77,7.29,39.32,39.32,0,0,0-1.44,7.58,15.65,15.65,0,0,0,.09,1.9l.13,1.93a21.92,21.92,0,0,0,.57,3.8c.14.62.31,1.24.49,1.85a14.28,14.28,0,0,0,.64,1.73,12.59,12.59,0,0,0,.85,1.58c.16.24.33.49.5.71a4.1,4.1,0,0,0,.49.52,3.13,3.13,0,0,0,2.62.66,5.32,5.32,0,0,0,1.51-.43,7.18,7.18,0,0,0,1.45-.92,33.7,33.7,0,0,0,3-2.5l3.19-2.71.4-.33c.16-.12.32-.24.49-.35a6.89,6.89,0,0,1,1.07-.58,6.79,6.79,0,0,1,2.38-.6,6.67,6.67,0,0,1,4.65,1.32,7.92,7.92,0,0,1,2.62,3.87,8.71,8.71,0,0,1,.34,2.3,15.64,15.64,0,0,1-.18,2.18,14.4,14.4,0,0,1-1.33,4.12,20.84,20.84,0,0,1-2.28,3.55,24.14,24.14,0,0,1-6.25,5.47,24.6,24.6,0,0,1-7.62,3.16l.32-.4c0,.67-.06,1.35-.1,2a4.16,4.16,0,0,1-.53,2.08l-.16-.47a35.06,35.06,0,0,1,4.52,2.22,23.8,23.8,0,0,1,4.05,3,19.23,19.23,0,0,1,3.26,3.83A8.63,8.63,0,0,1,728.1,368Zm-.3,0a8.23,8.23,0,0,0-1.49-4.59,18.51,18.51,0,0,0-3.23-3.73,21.73,21.73,0,0,0-4-2.83,33.1,33.1,0,0,0-4.49-2.07l-.36-.13.19-.34a3.36,3.36,0,0,0,.37-1.78c0-.66,0-1.32,0-2v-.31l.32-.09a23.11,23.11,0,0,0,7.16-3.35,22.81,22.81,0,0,0,5.66-5.42,14.82,14.82,0,0,0,2.91-7,11.61,11.61,0,0,0,.06-1.86,6,6,0,0,0-.33-1.69,5.75,5.75,0,0,0-2-2.65,4.26,4.26,0,0,0-3-.71,4.67,4.67,0,0,0-1.52.44,4.89,4.89,0,0,0-.69.42l-.33.25-.37.33-2.91,2.64a38.2,38.2,0,0,1-3.17,2.78,10.62,10.62,0,0,1-1.95,1.28,8,8,0,0,1-2.36.72,8.38,8.38,0,0,1-1.23.09,5.5,5.5,0,0,1-1.33-.16,5.76,5.76,0,0,1-2.43-1.22,6.62,6.62,0,0,1-.9-.94c-.25-.32-.47-.62-.68-.94a14.74,14.74,0,0,1-1.09-2,18,18,0,0,1-.79-2.07c-.21-.68-.4-1.36-.57-2.06a25.18,25.18,0,0,1-.68-4.2l-.17-2.11a18.75,18.75,0,0,1-.1-2.16,27.37,27.37,0,0,1,.56-4.26c.28-1.37.61-2.72,1-4.07a47.12,47.12,0,0,1,3-7.85,25.76,25.76,0,0,1,2.23-3.68,8.5,8.5,0,0,1,3.76-3.15,5.54,5.54,0,0,1,2.78-.26,4.17,4.17,0,0,1,2.72,1.54A6.05,6.05,0,0,1,719,298a7.77,7.77,0,0,1,.41,1.17,11,11,0,0,1,.36,2.29q.07,1.08.06,2.16c0,.76-.06,1.33,0,1.91a6.47,6.47,0,0,0,.1.8,2.63,2.63,0,0,0,.22.69,6.18,6.18,0,0,0,.81,1.4,3.91,3.91,0,0,0,2.52,1.46,6.51,6.51,0,0,0,3.27-.32,7.68,7.68,0,0,0,2.8-1.92,8.6,8.6,0,0,0,1.87-2.88,6.29,6.29,0,0,0,.3-1.64l.08-1.95a23.73,23.73,0,0,0-.16-3.87,27.05,27.05,0,0,0-2-7.48,19.23,19.23,0,0,0-4.21-6.32,16.47,16.47,0,0,0-3-2.28,13,13,0,0,0-3.49-1.36,20.13,20.13,0,0,0-7.7-.07,20.51,20.51,0,0,0-7.24,2.84,29.67,29.67,0,0,0-10.44,11.75,51.22,51.22,0,0,0-5,15.18,55.13,55.13,0,0,0-.77,8,47.53,47.53,0,0,0,.59,8,39.89,39.89,0,0,0,5.2,15,24.08,24.08,0,0,0,5.13,5.82,16.52,16.52,0,0,0,6.91,3.09l.85.17,0,.91.06,3.62c0,1.2,0,2.48.13,3.47A5.37,5.37,0,0,0,707,359a3.36,3.36,0,0,0,.31.56,4,4,0,0,0,.46.54,10.44,10.44,0,0,0,2.69,1.76c2.11,1.17,4.4,2.16,6.37,4.38a5.17,5.17,0,0,1,1,2.17,6.72,6.72,0,0,1,.07,2.27,6.29,6.29,0,0,1-2.14,3.94A10.07,10.07,0,0,1,714,375.8a8.81,8.81,0,0,1-2,.78,8.33,8.33,0,0,1-2.11.3,16.14,16.14,0,0,1-2-.09,11,11,0,0,1-2-.39,8.22,8.22,0,0,1-1-.37c-.16-.07-.33-.15-.49-.24l-.43-.24a16.23,16.23,0,0,1-3.1-2.33L699.63,372l-.63-.58a2.78,2.78,0,0,0-.51-.33,3.38,3.38,0,0,0-2.6,0,4.45,4.45,0,0,0-1.25.77,3.62,3.62,0,0,0-.9,1.07,3.11,3.11,0,0,0-.14,2.64l0,.08v.05a9.91,9.91,0,0,0,2.9,4.64,14.64,14.64,0,0,0,4.83,3,21.88,21.88,0,0,0,5.69,1.17,18,18,0,0,0,5.82-.3,20.52,20.52,0,0,0,10.19-5.67,18.53,18.53,0,0,0,3.42-4.82A13.34,13.34,0,0,0,727.8,368Z"/><path class="cls-9" d="M792.27,332.54c0,1.47-.06,3.4-.19,5.78a35.55,35.55,0,0,1-1,6.94,16.43,16.43,0,0,1-2.71,5.85,6.08,6.08,0,0,1-5.16,2.46,8.59,8.59,0,0,1-7-3,10.58,10.58,0,0,1-2.34-7.37,30.56,30.56,0,0,1-8.92,5.41,27.4,27.4,0,0,1-10.14,2,14,14,0,0,1-6.77-1.72,20.72,20.72,0,0,1-5.65-4.43,21.83,21.83,0,0,1-3.94-6.08,16.76,16.76,0,0,1-1.48-6.71,15.83,15.83,0,0,1,3.63-10.33,33.42,33.42,0,0,1,8.92-7.56,52.06,52.06,0,0,1,11.25-5,65.48,65.48,0,0,1,10.64-2.46,9.29,9.29,0,0,1,.06-1.11,9,9,0,0,0,.06-1.1,8.85,8.85,0,0,0-2.09-6.15,7.49,7.49,0,0,0-5.9-2.34,12.26,12.26,0,0,0-5.29,1.05A33,33,0,0,0,754,299c-1.31.86-2.63,1.64-3.94,2.34a9.25,9.25,0,0,1-4.42,1.05,6.64,6.64,0,0,1-4.62-1.73,5.67,5.67,0,0,1-1.9-4.42,12.29,12.29,0,0,1,2.4-7.38,21.11,21.11,0,0,1,6-5.6,33.23,33.23,0,0,1,7.87-3.57,27,27,0,0,1,7.81-1.29,28.37,28.37,0,0,1,6.64.8,24.87,24.87,0,0,1,6.28,2.46,24.54,24.54,0,0,1,5.34,4.06,19.22,19.22,0,0,1,3.88,5.6A53.35,53.35,0,0,1,789,301,89.44,89.44,0,0,1,791,311.44q.74,5.35,1,10.7C792.18,325.71,792.27,329.17,792.27,332.54Zm-19.68-3.94-.37-8.36a2,2,0,0,1-.49-.06,2.14,2.14,0,0,0-.49-.07,13.25,13.25,0,0,0-4,.8,21,21,0,0,0-4.61,2.22,17.8,17.8,0,0,0-3.75,3.13,5.32,5.32,0,0,0-1.54,3.57,2.37,2.37,0,0,0,1.23,2.34,6.24,6.24,0,0,0,2.83.61,13.93,13.93,0,0,0,5.78-1.41C769.23,330.43,771,329.5,772.59,328.6Z"/><path class="cls-5" d="M792.42,332.54a80.27,80.27,0,0,1-.62,10.26,25.55,25.55,0,0,1-1.26,5,17.6,17.6,0,0,1-1.11,2.37,9.59,9.59,0,0,1-1.6,2.16,6.94,6.94,0,0,1-5.08,1.83,10,10,0,0,1-5.29-1.36,9.81,9.81,0,0,1-3.64-4.2,12.84,12.84,0,0,1-1.12-5.43l1.86.88A30.6,30.6,0,0,1,764,350.4a26.9,26.9,0,0,1-6.09,1.38,27.23,27.23,0,0,1-3.13.17,15.46,15.46,0,0,1-3.24-.36,17.12,17.12,0,0,1-5.84-2.64,22,22,0,0,1-4.61-4.27,22.84,22.84,0,0,1-3.26-5.31,18.82,18.82,0,0,1-1.6-6,17.87,17.87,0,0,1,.63-6.18,16.74,16.74,0,0,1,2.8-5.5,34.41,34.41,0,0,1,9.09-7.93,54.93,54.93,0,0,1,10.9-5.1,72.1,72.1,0,0,1,11.67-3l-.63.71.08-2.28a11.28,11.28,0,0,0-.26-2.12,7.15,7.15,0,0,0-1.93-3.55c-1.89-1.9-5-1.95-7.73-1.38a9.62,9.62,0,0,0-1.94.65c-.63.3-1.31.66-2,1s-1.27.74-1.88,1.15-1.32.82-2,1.23l-2,1.23a9.56,9.56,0,0,1-2.36,1,10.76,10.76,0,0,1-2.57.41,9.08,9.08,0,0,1-2.67-.24,7.65,7.65,0,0,1-2.52-1.14,7.56,7.56,0,0,1-2-2,7,7,0,0,1-1.1-2.64,8.09,8.09,0,0,1-.15-1.38c0-.44,0-.85,0-1.28a13.69,13.69,0,0,1,1.29-4.94,15.14,15.14,0,0,1,1.3-2.2,21.93,21.93,0,0,1,1.54-1.92,25.21,25.21,0,0,1,7.8-5.77,35.48,35.48,0,0,1,9.09-3,23.37,23.37,0,0,1,4.88-.41,29.94,29.94,0,0,1,4.81.49,25.93,25.93,0,0,1,9,3.42,25.66,25.66,0,0,1,3.87,2.92,20.13,20.13,0,0,1,3.21,3.67,23.52,23.52,0,0,1,2.25,4.25c.62,1.44,1.17,2.91,1.65,4.39a66.79,66.79,0,0,1,2.18,9,91.2,91.2,0,0,1,1.18,9.15C792.38,320.29,792.27,326.42,792.42,332.54Zm-.3,0-.3-9.17a86.47,86.47,0,0,0-.87-9.1,78.76,78.76,0,0,0-4.43-17.59q-.84-2.08-1.86-4.08a21.09,21.09,0,0,0-2.22-3.74,22.13,22.13,0,0,0-6.47-5.58,23.84,23.84,0,0,0-8.08-2.89,27.07,27.07,0,0,0-4.31-.38,23.51,23.51,0,0,0-4.25.4,32.21,32.21,0,0,0-8.26,2.74,23.12,23.12,0,0,0-6.94,5,19.27,19.27,0,0,0-1.35,1.64,11.46,11.46,0,0,0-1.06,1.73,10.56,10.56,0,0,0-1.09,3.86,5.06,5.06,0,0,0,.65,3.48,4.83,4.83,0,0,0,1.25,1.26,5.06,5.06,0,0,0,1.61.76,7.94,7.94,0,0,0,3.84-.07,6.53,6.53,0,0,0,1.84-.76l1.93-1.11c.66-.38,1.28-.71,2-1.14s1.36-.81,2.06-1.18,1.39-.7,2.15-1a12.55,12.55,0,0,1,2.43-.73,14.89,14.89,0,0,1,4.94-.05,8,8,0,0,1,4.54,2.35,8.83,8.83,0,0,1,2.22,4.5,13.39,13.39,0,0,1,.2,2.44l-.17,2.29L772,307l-.58.07a56.34,56.34,0,0,0-22.27,7.44,31,31,0,0,0-8.68,7.83,15.23,15.23,0,0,0-2.67,10.84,17.16,17.16,0,0,0,1.71,5.38,21,21,0,0,0,3.2,4.69,20.35,20.35,0,0,0,4.29,3.63,14.39,14.39,0,0,0,5,2.14,12.73,12.73,0,0,0,2.69.28,24.42,24.42,0,0,0,2.83-.17,28.71,28.71,0,0,0,5.54-1.21,30.77,30.77,0,0,0,10-5.51l2-1.68-.16,2.56a10.66,10.66,0,0,0,.64,4.6,8,8,0,0,0,2.75,3.63,8.51,8.51,0,0,0,4.45,1.42,5.86,5.86,0,0,0,4.41-1.27,8.39,8.39,0,0,0,1.55-1.87,14.6,14.6,0,0,0,1.2-2.2,24.24,24.24,0,0,0,1.41-4.86C792.06,339.39,791.93,335.94,792.12,332.54Z"/><path class="cls-5" d="M772.46,328.53c-.23-.8-.41-1.54-.59-2.26s-.32-1.41-.44-2.08a32.4,32.4,0,0,1-.54-3.89l1.33,1.27-.48,0-.23,0-.11,0h0c-.09,0-.06,0-.26,0s-.64,0-1,0c-.68.05-1.4.12-2.14.22A12.07,12.07,0,0,0,763.7,323a11.25,11.25,0,0,0-3.4,2.88,6.31,6.31,0,0,0-1.6,3.49,2,2,0,0,0,.27,1.26.71.71,0,0,0,.29.16,3.78,3.78,0,0,0,.79.24,11.45,11.45,0,0,0,3.81-.08,24.59,24.59,0,0,0,4-1.14C769.25,329.39,770.73,329,772.46,328.53Zm.26.14a34.41,34.41,0,0,1-3.66,2.9,19.26,19.26,0,0,1-2.15,1.36,16,16,0,0,1-2.33,1,9.44,9.44,0,0,1-5.32.21,6.39,6.39,0,0,1-1.36-.56,3.55,3.55,0,0,1-1.41-1.34,4,4,0,0,1-.51-1.7,5.41,5.41,0,0,1,.1-1.51,5.52,5.52,0,0,1,1.27-2.53,11.21,11.21,0,0,1,1.9-1.67c1.32-1,2.65-1.77,4-2.57s2.67-1.71,4.14-2.43a11,11,0,0,1,2.34-.85,6.18,6.18,0,0,1,1.31-.17,4.27,4.27,0,0,1,.88.08l.12,0h.08a.17.17,0,0,1,.1,0l1.32.58v.69a38.77,38.77,0,0,1-.17,4.47c-.06.72-.16,1.42-.26,2.1A17.09,17.09,0,0,1,772.72,328.67Z"/><path class="cls-9" d="M835.68,282.24a6,6,0,0,1-2.4,5.28,43.12,43.12,0,0,1-5.35,3.26,27.65,27.65,0,0,0-5.35,3.63q-2.4,2.1-2.4,6.27a6.81,6.81,0,0,0,1.05,3.82,13,13,0,0,0,2.58,2.89q1.53,1.29,3.38,2.64a21.86,21.86,0,0,1,3.38,3.07,15.1,15.1,0,0,1,2.59,4.19,15.5,15.5,0,0,1,1,6,21.43,21.43,0,0,1-2.64,10.15,33.93,33.93,0,0,1-6.77,8.85,33.39,33.39,0,0,1-9.28,6.21,24.6,24.6,0,0,1-10.21,2.34,28,28,0,0,1-4.18-.31,11.6,11.6,0,0,1-3.75-1.17A7.77,7.77,0,0,1,794.6,347a6.69,6.69,0,0,1-1.1-4,9.14,9.14,0,0,1,1.35-5.35,9.69,9.69,0,0,1,3.44-3,20.7,20.7,0,0,1,4.49-1.73,28.53,28.53,0,0,0,4.49-1.53,10.28,10.28,0,0,0,3.44-2.4,6,6,0,0,0,1.36-4.18,9.13,9.13,0,0,0-2-5.35c-1.36-1.85-2.85-3.81-4.49-5.9a54.84,54.84,0,0,1-4.49-6.71,15.64,15.64,0,0,1-2-7.87,22.44,22.44,0,0,1,2.15-9.78,25.33,25.33,0,0,1,5.78-7.8,27.6,27.6,0,0,1,8.3-5.23,25.86,25.86,0,0,1,9.84-1.91,21,21,0,0,1,3.88.37,10.08,10.08,0,0,1,3.38,1.29,7,7,0,0,1,3.32,6.34Z"/><path class="cls-5" d="M835.83,282.24a7.43,7.43,0,0,1-.75,3.49,5.56,5.56,0,0,1-1.1,1.45,13.19,13.19,0,0,1-1.42,1.1c-1,.68-2,1.32-3,1.93s-2.07,1.15-3,1.79a27.18,27.18,0,0,0-2.78,2.08,7.14,7.14,0,0,0-2.08,2.51,8.43,8.43,0,0,0-.67,3.16,7.35,7.35,0,0,0,.45,3.11,5.4,5.4,0,0,0,.75,1.31,12.45,12.45,0,0,0,1.07,1.22,13.73,13.73,0,0,0,1.21,1.08l1.39,1,2.85,2.1a24.46,24.46,0,0,1,2.74,2.54,15.1,15.1,0,0,1,2.22,3.15,14.74,14.74,0,0,1,1.38,3.62,20.21,20.21,0,0,1,.14,7.51,22.93,22.93,0,0,1-2.45,7,34.88,34.88,0,0,1-4.12,6,36.66,36.66,0,0,1-11.29,8.79,26.81,26.81,0,0,1-13.86,3.14,15.2,15.2,0,0,1-7.08-1.73,8.25,8.25,0,0,1-2.74-2.68,7.69,7.69,0,0,1-1-3.75,12.72,12.72,0,0,1,.35-3.76,7.37,7.37,0,0,1,.74-1.86,9.61,9.61,0,0,1,1.15-1.6,11.13,11.13,0,0,1,3.06-2.41,21.17,21.17,0,0,1,3.43-1.46c1.23-.39,2.26-.64,3.33-1.05a17.84,17.84,0,0,0,3-1.36,8.69,8.69,0,0,0,1.24-.89,5.65,5.65,0,0,0,1-1,4.88,4.88,0,0,0,.71-2.6c.08-1.94-.86-3.71-2.32-5.49L804,314.1a50.11,50.11,0,0,1-4.08-6,17,17,0,0,1-2.41-7.3,24.28,24.28,0,0,1,.61-7.52,23.05,23.05,0,0,1,2.93-6.9A26.23,26.23,0,0,1,812,276.62,27.12,27.12,0,0,1,826,273.85a22.77,22.77,0,0,1,3.56.58,9.79,9.79,0,0,1,3.27,1.53,7.68,7.68,0,0,1,2.3,2.76A8,8,0,0,1,835.83,282.24Zm-.3,0a7.71,7.71,0,0,0-.7-3.36,6.91,6.91,0,0,0-2.24-2.56,12,12,0,0,0-6.6-1.65,25.13,25.13,0,0,0-13.1,3.69,26.45,26.45,0,0,0-9.35,9.48,22.11,22.11,0,0,0-2.41,6.12,21.41,21.41,0,0,0-.43,6.52,14.19,14.19,0,0,0,2,6,60.65,60.65,0,0,0,3.78,5.71l4.24,5.69.53.72c.19.26.37.53.55.81a12.86,12.86,0,0,1,.92,1.77,9,9,0,0,1,.75,4.07,7.54,7.54,0,0,1-1.29,4.07,8.22,8.22,0,0,1-1.47,1.52,11.71,11.71,0,0,1-1.66,1.11,20.87,20.87,0,0,1-3.49,1.43c-1.15.4-2.43.67-3.45.95a19.17,19.17,0,0,0-3.11,1.19,9.14,9.14,0,0,0-2.58,1.8,6.24,6.24,0,0,0-1.62,2.58,11.42,11.42,0,0,0-.48,3.23,6.18,6.18,0,0,0,.63,3,7,7,0,0,0,2.16,2.32,10,10,0,0,0,3,1.31,23.55,23.55,0,0,0,10.28,0,26.9,26.9,0,0,0,6.47-2.49,31.68,31.68,0,0,0,10.44-9c2.74-3.68,4.9-7.88,5.4-12.28a19.36,19.36,0,0,0-.28-6.54,11.71,11.71,0,0,0-1.15-3,13.37,13.37,0,0,0-1.8-2.64,42.61,42.61,0,0,0-5.11-4.55L823,308.22a13.22,13.22,0,0,1-1.33-1.37,14.15,14.15,0,0,1-1.13-1.54,7.27,7.27,0,0,1-.87-1.82,9.29,9.29,0,0,1-.27-3.86,9.5,9.5,0,0,1,1.11-3.64,6.68,6.68,0,0,1,1.17-1.53,12.45,12.45,0,0,1,1.43-1.17,27.72,27.72,0,0,1,3-2c1.05-.59,2.13-1.06,3.15-1.62s2.05-1.15,3-1.78a10.48,10.48,0,0,0,1.4-1,5.24,5.24,0,0,0,1-1.35A7.2,7.2,0,0,0,835.53,282.24Z"/></g></g></svg>